/* XPM */
static char *c8a4beb1faa74bc4edd390ff2a5c257cPOXMSYi3KJRMtRpH[] = {
/* columns rows colors chars-per-pixel */
"64 64 156 2 ",
"   c #000001",
".  c #02000B",
"X  c #050015",
"o  c #06001A",
"O  c #08061F",
"+  c #070021",
"@  c #080323",
"#  c #090A23",
"$  c #09002C",
"%  c #0D1424",
"&  c #0B0133",
"*  c #0C003C",
"=  c #0D0938",
"-  c #0E0043",
";  c #0F0048",
":  c #100646",
">  c #100846",
",  c #10014B",
"<  c #120C4D",
"1  c #13104E",
"2  c #120054",
"3  c #140D54",
"4  c #14015B",
"5  c #16095E",
"6  c #151455",
"7  c #161857",
"8  c #181D57",
"9  c #16155A",
"0  c #18175E",
"q  c #171958",
"w  c #191B5D",
"e  c #1B2757",
"r  c #1D275E",
"t  c #1F3258",
"y  c #21335E",
"u  c #223A5B",
"i  c #160064",
"p  c #17006D",
"a  c #18006F",
"s  c #1A166C",
"d  c #1B186C",
"f  c #170071",
"g  c #190074",
"h  c #1B007C",
"j  c #1C097B",
"k  c #1E107F",
"l  c #1D0484",
"z  c #1E0E82",
"x  c #1E008C",
"c  c #1F0989",
"v  c #1F1084",
"b  c #1F0091",
"n  c #201486",
"m  c #211887",
"M  c #221A8C",
"N  c #200096",
"B  c #21009D",
"V  c #23099E",
"C  c #231A92",
"Z  c #262396",
"A  c #27249C",
"S  c #292B9E",
"D  c #2B349E",
"F  c #2300A2",
"G  c #250FA2",
"H  c #2500AC",
"J  c #2608AB",
"K  c #2611A3",
"L  c #2818A7",
"P  c #291AAB",
"I  c #2700B5",
"U  c #290FB5",
"Y  c #2700B8",
"T  c #2800BB",
"R  c #2A08BF",
"E  c #2A12B5",
"W  c #2B16B9",
"Q  c #2826A3",
"!  c #292AA3",
"~  c #2B2AAA",
"^  c #2C34A2",
"/  c #2E2ABA",
"(  c #31449E",
")  c #37569E",
"_  c #3B639F",
"`  c #3244A3",
"'  c #3857A3",
"]  c #3C63A3",
"[  c #2A02C2",
"{  c #2B09C3",
"}  c #2C02CA",
"|  c #2E0CCB",
" . c #2E15C4",
".. c #2E1BC2",
"X. c #2E11CC",
"o. c #3014CF",
"O. c #321CCC",
"+. c #2F0FD0",
"@. c #300FD5",
"#. c #3116D3",
"$. c #3119D5",
"%. c #3316DB",
"&. c #331BDA",
"*. c #3023C4",
"=. c #3126C9",
"-. c #3229CC",
";. c #3324D4",
":. c #3524DE",
">. c #3826DE",
",. c #3628DB",
"<. c #3530D4",
"1. c #3633DC",
"2. c #3C31DE",
"3. c #3838DC",
"4. c #351DE1",
"5. c #3724E3",
"6. c #3826E7",
"7. c #3728E5",
"8. c #3829E6",
"9. c #3926ED",
"0. c #392CEB",
"q. c #3C3AE2",
"w. c #3B31ED",
"e. c #3C39ED",
"r. c #3B2CF4",
"t. c #3D35F3",
"y. c #3E39F6",
"u. c #3E34FD",
"i. c #3F3BFA",
"p. c #403EFD",
"a. c #3C44DC",
"s. c #4359DC",
"d. c #4A6EDC",
"f. c #4A70DB",
"g. c #4A70DC",
"h. c #507FDB",
"j. c #4140E7",
"k. c #4244F3",
"l. c #4141FF",
"z. c #4443FF",
"x. c #4245FF",
"c. c #4545FF",
"v. c #464BFE",
"b. c #4955F2",
"n. c #4858F5",
"m. c #4A55FF",
"M. c #4A5DFB",
"N. c #4B5FFC",
"B. c #4E65F5",
"V. c #4F67F7",
"C. c #4D60FE",
"Z. c #506FF5",
"A. c #5173F9",
"S. c #5080DB",
"D. c #5080DC",
"F. c #5681F6",
/* pixels */
"T T T Y Y T { $.7.y.l.l.l.l.l.x.x.x.i.0.&.{ F a * o # 7 A 1.p.z.c.l.q.! 0 #                 X * g B Y T Y Y { #.7.y.l.l.l.l.l.l.",
"T T T Y Y T { $.7.y.l.l.l.l.l.l.l.l.y.8.&.{ F a * o # 7 S 3.l.c.c.l.3.! 0 #                 o - g F T T T T { $.7.y.l.l.l.l.l.l.",
"T T T Y Y T { $.7.y.l.x.l.l.l.p.p.y.w.5.#.{ F a * o # 8 D a.v.v.c.y.<.Z 9 #             . X $ 2 h F T [ { { X.&.0.y.l.l.l.l.l.l.",
"T T T Y Y T { #.7.y.l.x.x.l.l.i.t.0.5.&.+.R F a * o # e ( s.M.m.c.w.=.C 3 O         . X @ * 2 a x H T { | #.&.7.w.i.l.l.l.l.l.l.",
"T T T Y Y Y { #.7.y.l.x.x.l.p.t.7.&.#.| | T F a * o % t ) d.A.C.k.,.W z < o         . $ - i h b F I R | $.:.8.t.y.p.l.l.l.l.l.l.",
"T T T Y Y T { $.7.y.l.x.x.l.y.0.&.X.{ { [ T F a * o % u _ h.F.V.j.O.J h - o         X * i x F H I T { #.5.w.y.p.p.l.l.l.l.l.l.l.",
"T T T T T { X.&.0.y.l.l.p.y.w.:.#.{ T T [ T F f * o % u _ S.F.V.q. .F g - o         o - g F T T T T { $.7.y.l.l.l.l.l.p.i.y.y.y.",
"Y T T { | o.&.7.t.i.p.i.t.8.:.#.| T T T [ T F g * o % t ) f.Z.b.2.{ B f - o         o , h H [ [ [ T { $.0.i.x.x.x.l.p.y.w.0.7.7.",
"Y T R | $.5.0.t.i.p.i.t.5.$.X.{ { T T T [ T F g * o # e ( s.n.k.>.{ B f - o         o , h H [ [ [ T { $.0.i.x.x.x.l.i.w.5.&.$.#.",
"Y T { o.:.w.y.p.l.l.y.0.&.X.{ R T T T T [ T B a * o # 8 D a.k.t.4.{ F g - o         o - g F T T T T { $.7.y.l.x.x.l.y.8.&.X.{ R ",
"Y T { #.7.y.l.x.x.l.y.0.&.X.{ R T T Y Y I F x 4 & X # q S 3.y.r.5.X.J j - o         X * i x F H I T { #.5.w.y.p.l.l.y.7.#.{ T Y ",
"Y T { $.7.i.l.x.x.l.i.w.7.&.#.| { T I F b h i - + X # 9 Q 1.y.u.r.&.W z < o         . @ - i h b F Y { | &.5.0.t.i.p.y.7.#.{ Y Y ",
"Y T { $.7.y.l.x.x.l.p.y.t.0.5.&.| R H x g 2 * + . . # 9 Q 1.i.p.u.0.=.C 6 O           . + & , a b H [ | | #.&.7.t.i.y.7.#.{ Y Y ",
"Y T { #.7.y.l.x.l.l.l.p.i.y.w.5.#.{ F h 2 $ X       # 0 ! 3.l.z.p.y.<.Z 9 #             . X $ 2 h F T [ { { X.&.0.y.y.7.$.{ T Y ",
"Y T { #.7.y.l.x.l.l.l.p.p.y.w.5.#.{ F g - o         # w ^ a.v.v.c.y.<.Z 9 #     . X o X X o $ , a x F H I T { $.0.y.y.8.$.{ T Y ",
"Y T { $.7.y.l.x.x.l.p.i.t.0.7.&.@.{ F g - X         # r ` s.N.m.c.w.=.C 3 # . X @ * - - - * - , 4 p h x F I { &.r.i.i.0.$.{ T Y ",
"Y T { $.7.i.l.x.x.l.i.t.7.&.#.+.| [ F h - X         % y ' g.A.C.k.,.W z : o X @ - i g h h g p 4 , - , p x H | 4.r.p.i.0.$.{ T Y ",
"Y T { #.7.y.l.x.x.l.y.0.&.X.{ { [ T F g - o         % u ] D.F.V.j.O.J g - o X & i x F H H F x p - $ & , h F { &.8.y.t.7.$.{ T Y ",
"Y T { o.:.w.y.p.l.l.y.7.$.{ T Y H F x i * X         % u ] D.F.V.q. .F a * o o * g B T [ [ T F h , & $ - p x J W =.<.1.;. .{ T Y ",
"T T { | $.5.0.t.i.p.i.8.&.{ Y F b h i , $ X         % y ' g.Z.b.2.{ B a * o o - g F [ } } [ H x a , - , 4 a j n C A Q P E R T [ ",
"[ [ [ { | #.&.7.t.p.i.0.&.{ H b g 2 * @ X .         # r ` s.n.k.>.{ B a * o o * g F T } [ T Y F x h p 4 2 , : > 1 9 s v V I [ [ ",
"T T T T T { X.&.0.y.y.8.&.{ F h 2 $ X .             # w ^ a.k.t.4.{ F a * o o * g F T [ [ T T Y H F x a , $ o X X # = 5 l F T [ ",
"F F F H H Y { #.7.w.w.:. .J x i * X                 # 0 ! 3.y.r.5.X.J g * o o * g F T [ T T T T [ T F g - o         X * p x F H ",
"g g h x B H T | &.:.;...K l i - +                   # 9 Q 1.y.u.r.&.W z > o o * g F T [ T T T [ [ T F g * X         . $ , i g h ",
"* - 2 a x F T } +.o. .K j 2 * + .                   # 9 Q 1.i.p.u.0.=.M 1 # o * g F T [ T T T [ [ T F g * X           X $ * - , ",
"X o $ 2 h F T } } { J l 4 & X .                     # 0 ! 3.l.z.p.y.<.Z 6 # o * a F T [ T T T T [ T F g - o           . X X o o ",
"    o - j J { | } T F g - o     . X X X .           # w ^ a.v.v.c.y.<.Z 6 # o * a F T [ T T T [ { { J l 4 & X .                 ",
"    X > k E o.@.| T N p & .   . @ * * $ o           # r ` s.N.m.c.w.=.M < # o * g F T T T T T { | o. .K j 2 * @ X .             ",
"    X 1 M *.:.4.@.T N p & .   o - i i , $ .         % y ' g.A.C.k.,.W z : o o * g B Y T T T R | &.:.;...K l i - $ .             ",
"    # 9 A <.w.9.%.{ F g * o o * i x x a - X         % u ] D.F.V.j.O.J g * o o * g B T T T T { #.5.w.w.:. .J x i * X             ",
". o = d ~ 3.y.r.4.X.J l 3 = = 4 l F F l 4 $ X       % u ] D.F.V.q. .F a * o o * g B T [ { { X.&.0.y.y.9.&.{ F g - o     . X o o ",
"* - 5 M / q.i.y.9.&...L m s s z V I I N g 2 * + . . % y ' g.Z.b.2.{ B a * o o * g F T | | #.&.7.t.p.i.r.4.| F g - o . X @ * - ; ",
"a g c L -.e.p.p.t.0.,.-./ ~ Q P U R Y H N h i - + X # e ` s.n.k.>.{ B a * o o * g F R +.&.5.0.t.i.p.i.r.&.{ F g - o X @ - i g h ",
"B F J  .,.t.l.l.p.y.t.e.q.q.1.;. .R T Y H F x 4 & o # 8 ^ a.k.t.4.{ F a * o o * a F { #.5.w.y.p.l.l.i.9.&.{ F g * o X & i x F H ",
"Y T { #.7.y.l.l.l.l.l.l.l.l.y.7.$.{ T T T Y B a * o # q S 3.y.r.5.X.J g * o o * a F { &.8.y.l.x.x.l.y.8.&.{ F a * o o - g B T [ ",
"T [ | #.7.y.l.x.x.l.x.x.c.l.p.8.$.{ T T [ T F g * o # 9 A 1.y.u.r.&.W z > o o * a F { &.9.i.l.x.x.l.y.9.&.{ F a * o o - h F T } ",
"T T | #.7.y.l.x.x.l.l.x.x.l.i.8.$.{ T T [ T F g * o # 7 A 1.i.p.u.0.=.M 1 # o * a F { &.9.i.l.x.x.l.y.8.&.{ F a * o o - g F T } ",
"Y T { #.7.y.l.l.l.l.l.l.x.l.y.7.$.{ T T T T F g * o # 7 S 3.l.z.p.y.<.Z 6 # o * a F { &.8.y.l.x.x.l.y.8.&.{ F a * o o - g F T [ ",
"Y T { #.7.y.l.l.l.l.l.l.l.l.y.7.$.{ T T T T F a * o # 8 D a.v.v.c.y.<.Z 6 # o * a F { &.8.y.l.x.x.l.y.8.&.{ F a * o o - g F T [ ",
"Y T { #.7.y.l.l.l.l.l.l.x.l.y.7.$.{ T T T T F a * o # e ( s.N.m.c.w.=.M < # o * a F { &.9.i.l.x.x.l.y.8.&.{ F a * o o - g F T } ",
"Y T { #.7.y.l.l.l.l.l.x.x.l.i.7.$.{ T T T T F a * o % t ) g.A.C.k.,.W z : o o * a F { &.9.i.l.x.x.l.y.8.&.{ F a * o o - h F T } ",
"Y T { #.7.y.l.l.x.l.l.l.l.l.y.7.$.{ T T T T F a * o % u _ S.F.V.j.O.J g * o o * a F { &.8.y.l.x.x.l.y.8.&.{ F f * o o - g B T [ ",
"Y T { #.7.y.l.x.l.l.l.p.p.y.w.:.o.{ T T T T F a * o % u _ S.F.V.q. .F a * o o * a B { #.5.w.y.p.l.l.y.8.&.{ F a * o X & i x F H ",
"T T | #.7.y.l.x.x.l.p.y.w.7.:.$.| { T T T T F a * o % t ) f.Z.b.2.{ B a * o o * g F R | &.5.0.t.i.p.i.9.&.{ F g * o X @ - i g h ",
"T [ | #.7.y.l.x.x.l.i.w.5.$.X.| { T T T [ T F a * o # e ( s.n.k.>.{ B a * o o * g F T | | #.&.7.t.p.i.0.&.{ F g - o . X @ * - ; ",
"Y T { #.7.y.l.x.x.l.y.0.&.X.{ R T T T T [ T F a * o # 8 D a.k.t.4.{ F a * o o * g F T [ { { X.&.0.y.y.9.&.{ F g - o     . X o o ",
"B F J  .,.t.l.x.x.l.y.0.&.X.{ R T T T T [ T F a * o # q S 3.y.r.5.X.J g * o o * g F T T T T { #.5.w.w.6.%.{ F g - o             ",
"a g c L -.e.l.x.x.l.i.w.7.&.#.| { T T T [ T F a * o # 9 A 1.y.u.r.&.W z > o o * g F T T T T R | $.:.5.&.#.{ F h - o             ",
"* - 5 m / q.l.c.x.l.p.y.t.0.5.$.| { T T T T F a * o # 7 A 1.i.p.u.0.=.M 1 # o * g F T T T T T { | #.#.#.| [ F h - o             ",
". o = s ! 3.l.l.l.l.l.p.i.y.w.:.o.{ T T T T F a * o # 7 S 3.l.z.p.y.<.Z 6 # o * a F T [ T T T T { { { { [ T F g - o             ",
"    # 7 Z <.y.p.l.l.l.l.p.y.w.:.o.{ T T [ T F g * o # 8 D a.v.v.c.y.<.Z 6 # o * g F T [ T T T T T T T Y I F x i * X             ",
"    X < M =.0.u.p.p.l.i.t.0.5.$.| { T T [ T F g * o # e ( s.N.m.c.w.=.M < # o * g F T [ [ T T T T T I F N h i - @ .             ",
"    X : z W &.r.y.p.p.t.7.&.#.| { T T [ [ T F g * o % t ) g.A.C.k.,.W z : o o * g F T [ [ T T T [ T I N g 2 * @ X               ",
"    o - g J X.4.r.y.y.0.&.X.{ R T T T T [ T B a * o % u _ S.F.V.j.O.J g - o o * g B T [ T T T T T T F h 2 $ X .                 ",
"X o $ - p x J  .:.w.w.7.#.{ T T T T T Y I F x 4 & X % u ] D.F.V.q. .F a * o X & i x F I Y T T Y I F x i * X     . X o o o o o o ",
"- - , 2 4 a l G ..:.5.&.+.{ T T T T Y F N h i - + X % y ' g.Z.b.2.{ B a * o X + - i h N H Y Y H N h i - o     . @ * - - - - - - ",
"h g a i 2 , 4 j G  .#.@.| [ [ [ [ [ I N g 2 * + . . # r ` s.n.k.>.{ B a * o . . + * 2 g N H H N h 2 * o .     + - i g h h g g g ",
"H F x a - $ & 2 l J { { [ T T T T T F h 2 $ X       # w ^ a.k.t.4.{ F g - o       X $ 4 l F F l 4 $ X       X * i x F F F F F F ",
"[ T B g - o X & i x F F F F F F F B x i * X         # 0 ! 3.y.r.5.X.J j - o         X - a x x p * X       X $ 2 h F T T T T T T ",
"} T F g - X . o - i g g g g g g g g i - @ .         # 0 ! 1.i.u.r.&.W z < o         . $ , i i , @ .   . + * 2 g N I [ [ [ [ [ [ ",
"} T F h - X   . + & - - - - - - - - * $ X           # 0 ! 1.i.p.u.0.=.C 3 O           X $ * & @ X   . @ - p l N H Y T [ [ T T T ",
"[ T F h - o     . X o o o o o o o o X X .           # 0 ! 3.p.z.p.y.<.Z 9 #           . X X X .     X * i x F I Y T T T T T T T ",
"[ T F h - o                                         # 0 ! 3.l.c.c.l.3.! 0 #                         o - g F T [ T T T T T T T T ",
"[ T F h - o                                         # 0 ! 3.l.c.c.x.q.! 0 #                         o , h H [ [ [ T T T T T T T "
};
