/* XPM */
static char *a7ccea21bb7d497fdb4acdda59f10eee2OKDPFJPMiyOKRQg[] = {
/* columns rows colors chars-per-pixel */
"64 64 228 2 ",
"   c #000001",
".  c #03000B",
"X  c #0A0A0B",
"o  c #050115",
"O  c #06001A",
"+  c #08041D",
"@  c #09091D",
"#  c #0B0D13",
"$  c #1A1412",
"%  c #231601",
"&  c #231A0A",
"*  c #231617",
"=  c #3D2608",
"-  c #31221A",
";  c #070021",
":  c #080124",
">  c #090A22",
",  c #0A002D",
"<  c #0C1323",
"1  c #0B0134",
"2  c #0C003B",
"3  c #0D0A36",
"4  c #1A083A",
"5  c #191D2D",
"6  c #251131",
"7  c #1F2023",
"8  c #3C2F33",
"9  c #5A3700",
"0  c #5D3A00",
"q  c #533407",
"w  c #402B06",
"e  c #743D02",
"r  c #432729",
"t  c #5E410D",
"y  c #6B4302",
"u  c #784605",
"i  c #684014",
"p  c #5F4F32",
"a  c #0E0043",
"s  c #0F0048",
"d  c #10004B",
"f  c #12094C",
"g  c #100745",
"h  c #151149",
"j  c #120054",
"k  c #14015B",
"l  c #150A56",
"z  c #16145B",
"x  c #18195D",
"c  c #161756",
"v  c #2C174A",
"b  c #1C2858",
"n  c #1F3258",
"m  c #223959",
"M  c #383448",
"N  c #150064",
"B  c #17006D",
"V  c #19016E",
"C  c #180862",
"Z  c #1A166B",
"A  c #190074",
"S  c #1B017B",
"D  c #190476",
"F  c #1F197A",
"G  c #220866",
"H  c #1F2A66",
"J  c #565655",
"K  c #686A6D",
"L  c #824600",
"P  c #8D4E00",
"I  c #844800",
"U  c #8E5A03",
"Y  c #8C5105",
"T  c #975805",
"R  c #8A5310",
"E  c #A45C00",
"W  c #9E6200",
"Q  c #A26500",
"!  c #AD6600",
"~  c #A46800",
"^  c #AF6C0D",
"/  c #B76900",
"(  c #BC7601",
")  c #AE6D17",
"_  c #A77216",
"`  c #8D5B20",
"'  c #986D2F",
"]  c #AE762C",
"[  c #C36D00",
"{  c #C37201",
"}  c #CD7A00",
"|  c #D67E00",
" . c #C27C1F",
".. c #BC853F",
"X. c #D58200",
"o. c #DB8B01",
"O. c #DA8500",
"+. c #CC831E",
"@. c #D78F1C",
"#. c #E18E00",
"$. c #EC9200",
"%. c #E29001",
"&. c #F69B04",
"*. c #E4971B",
"=. c #FFAC1B",
"-. c #F6A416",
";. c #C9892B",
":. c #FEAE24",
">. c #FFB324",
",. c #F9B43F",
"<. c #AB854C",
"1. c #AB916E",
"2. c #CE9A54",
"3. c #D79B41",
"4. c #DEA450",
"5. c #F1B653",
"6. c #E0AD55",
"7. c #D9A965",
"8. c #D6AC74",
"9. c #E1B364",
"0. c #FFC85B",
"q. c #FFCE65",
"w. c #FCC56C",
"e. c #FFD065",
"r. c #1D0383",
"t. c #1E008C",
"y. c #1E0C84",
"u. c #1F0091",
"i. c #1F1084",
"p. c #221887",
"a. c #200096",
"s. c #21009D",
"d. c #23099E",
"f. c #241B94",
"g. c #22028C",
"h. c #28269B",
"j. c #292D91",
"k. c #2300A2",
"l. c #2500AC",
"z. c #2608AB",
"x. c #250FA2",
"c. c #2714A7",
"v. c #2700B5",
"b. c #2700B8",
"n. c #2800BB",
"m. c #2804B8",
"M. c #2B15B8",
"N. c #2A2AA3",
"B. c #2A27A6",
"V. c #2E29B8",
"C. c #3035AF",
"Z. c #344D9E",
"A. c #3B639F",
"S. c #354EA2",
"D. c #3C63A0",
"F. c #2A02C2",
"G. c #2B09C3",
"H. c #2C03CA",
"J. c #2E0CCB",
"K. c #2E16C4",
"L. c #2E11CC",
"P. c #2E1BC2",
"I. c #3014CF",
"U. c #321CCC",
"Y. c #2F0FD1",
"T. c #300FD5",
"R. c #3116D3",
"E. c #3219D5",
"W. c #331BDA",
"Q. c #3316DB",
"!. c #3226CA",
"~. c #3524DE",
"^. c #3527D9",
"/. c #3531D4",
"(. c #3734DB",
"). c #3838DD",
"_. c #3A34DE",
"`. c #3537C8",
"'. c #351DE1",
"]. c #3724E3",
"[. c #3728E5",
"{. c #3829E6",
"}. c #392CEB",
"|. c #3926EA",
" X c #3B3AE3",
".X c #3B31ED",
"XX c #3B39EB",
"oX c #3B2CF3",
"OX c #3C35F2",
"+X c #3E39F6",
"@X c #3F3BF9",
"#X c #3E35FC",
"$X c #403EFD",
"%X c #3C43DC",
"&X c #3E41F1",
"*X c #4359DC",
"=X c #4B73DC",
"-X c #4141FF",
";X c #4243FF",
":X c #4142FF",
">X c #4243FF",
",X c #4446F7",
"<X c #4958F8",
"1X c #4140E7",
"2X c #4E64F8",
"3X c #5171F7",
"4X c #5080DB",
"5X c #5681F6",
"6X c #8C8D8F",
"7X c #A49E99",
"8X c #A59A8B",
"9X c #BEBEBD",
"0X c #D3B894",
"qX c #E0BF94",
"wX c #F2CD8F",
"eX c #DACFBC",
"rX c #E9CEAA",
"tX c #ECD8BC",
"yX c #EBD1AE",
"uX c #FFE6AA",
"iX c #FCE6B9",
"pX c #F5E9D9",
"aX c #FFF3DB",
"sX c #F8EEE1",
"dX c #FFF6E3",
"fX c #F9F4EF",
"gX c #FDFBF9",
"hX c #D0C9C1",
/* pixels */
"n.n.n.b.b.n.G.R.[.+X-X-X-X-X-X;X;X;X@X}.W.G.k.V 2 O > c h.(.$X;X;X-X XN.x >                 o 2 A s.b.n.b.b.G.R.[.+X-X-X-X-X-X-X",
"n.n.n.b.b.n.G.R.[.+X-X-X-X-X-X-X-X-X+X}.W.G.k.V 2 O > c h.).-X;X;X-X).N.x >                 O a A k.n.n.n.n.G.E.[.+X-X-X-X-X-X-X",
"n.n.n.b.b.n.G.R.[.+X-X;X-X-X-X$X$X+X.X].R.G.k.V 2 O > c N.%X,X,X;X+X/.h.z >             . o , j S k.n.F.G.G.L.W.}.+X-X-X-X-X-X-X",
"n.n.n.b.b.n.G.R.[.+X-X;X;X-X-X@XOX}.].W.Y.n.k.V 2 O > b Z.*X<X<X;X.X!.f.l +         . o : 2 j V t.l.n.G.J.R.W.[..X@X-X-X-X-X-X-X",
"n.n.n.b.b.b.G.R.[.+X-X;X;X;X$XOX[.W.R.J.J.n.k.V 2 O < n S.=X3X2X,X^.M.i.f O         . , a N S u.k.v.n.J.E.~.}.OX+X$X-X-X;X;X-X-X",
"n.n.n.b.b.n.G.E.[.+X-X;X;X-X+X}.W.L.G.G.F.n.k.V 2 O < m A.=X5X2X1XU.z.A a O         o 2 N t.k.l.v.n.G.R.]..X+X$X$X-X-X-X-X-X-X-X",
"n.n.n.n.n.G.L.W.}.+X-X-X$X+X.X~.R.G.n.n.F.n.k.V 2 O < m A.4X5X2X XK.k.A a O         O a A k.n.n.n.n.G.R.[.+X-X-X-X-X-X$X@X+X+X+X",
"b.n.n.G.J.I.W.[.OX@X$X@XOX}.~.R.J.n.n.n.F.n.k.A 2 O < n S.=X3X<X_.G.s.V a O         O d S l.F.F.F.n.G.E.}.@X;X;X;X-X$X+X.X}.[.[.",
"b.n.n.J.E.].}.OX@X$X@XOX].E.L.G.G.n.n.n.F.n.k.A 2 O > b Z.*X<X,X~.G.s.V a O         O d S l.F.F.F.n.G.E.}.@X;X;X;X-X@X.X].W.R.R.",
"b.n.G.I.~..X+X-X-X-X+X}.W.L.G.n.n.n.n.n.F.n.s.V 2 O > x N.%X,XOX'.G.k.A a O         O a A k.n.n.n.n.G.R.[.+X-X;X;X-X+X}.W.L.G.n.",
"b.n.G.R.[.+X-X;X;X-X+X}.W.L.G.n.n.n.b.b.v.k.t.k 1 o > c h.).+XOX].L.z.D a O         o 2 N t.k.l.v.n.G.R.]..X+X$X-X-X+X[.R.G.n.b.",
"b.n.G.R.[.@X-X;X;X-X@X.X[.W.R.J.G.n.v.k.u.S N a ; o > z N.(.+X#XoXW.M.i.f O         . : a N A u.k.b.G.J.W.].}.OX@X$X+X[.R.G.b.b.",
"b.n.G.R.[.+X-X;X;X-X$X+XOX}.].W.J.n.l.t.A j 2 ; . . > z N.(.@X$X#X}.!.f.l @           . ; 1 d V u.l.F.J.J.R.W.[.OX@X+X[.R.G.b.b.",
"b.n.G.R.[.+X-X;X-X-X-X$X@X+X.X].R.G.k.S j , o       > x N.).-X;X$X+X/.h.z >             . O , j S k.n.F.G.G.L.W.}.+X+X[.E.G.n.b.",
"b.n.G.R.[.+X-X;X-X-X-X$X$X+X.X].Q.G.k.A a O         @ c j.C.%X).)./.V.p.h +     . o O o o O , d V t.k.l.v.n.G.E.}.+X+X}.E.G.n.b.",
"b.n.G.R.[.+X-X;X;X-X$X@XOX}.[.W.T.G.k.A a o         # 3 H j.C.C.N.h.F z 3 o   . ; 2 a a a 2 a d k B A t.k.v.G.W.oX@X@X}.E.G.n.b.",
"b.n.G.R.[.@X-X;X;X-X@XOX[.W.R.Y.J.F.k.A a o         X < 5 b b b c h g , O . . o 1 N A A A A B k d a d B t.l.J.'.oX$X@X}.E.G.n.b.",
"b.n.G.R.[.+X-X;X;X-X+X}.W.L.G.G.F.n.k.A a O           X # < < > @ + o .       o a A k.l.l.k.t.B a , 1 d A k.G.W.}.+XOX[.E.G.n.b.",
"b.n.G.I.~..X+X$X-X-X+X[.E.G.n.v.l.k.t.N 1 o   X $ 7 7 * & & % % % % % % % % % $ 4 D k.n.n.b.k.A d 1 , a B t.z.M.!./.(.!.L.G.n.b.",
"n.n.G.J.E.].}.OX@X$X@X}.W.G.b.k.u.S N a ; . X 7 M J J p p t 0 0 0 0 0 0 0 0 q = 6 k r.k.b.n.l.g.V d a d k V D p.f.h.B.c.M.m.n.F.",
"F.F.F.G.J.R.W.[.OX$X@X}.W.G.l.u.A j 2 O .   # 8 K 6X8X1.<._ ~ Q Q Q Q ~ ~ W U 0 - 4 j S s.b.b.k.t.A B k j d s f h z Z i.d.v.F.F.",
"n.n.n.n.n.G.L.W.}.+X+X}.W.G.k.S j , o       7 J 6X9XeXwX6.*.o.o.o.o.o.#.#.o.( U q * , k r.k.b.b.l.k.t.V d , O o o > 3 k r.k.n.F.",
"k.k.k.l.l.b.G.R.[..X.X~.K.z.t.N 1 o   X # 7 8 K 7XhXtXwX5.*.$.$.$.$.$.&.&.&.o.~ y = * 4 C g.k.b.n.b.k.A a O         o 2 B t.k.l.",
"A A S t.s.l.n.J.W.~.^.P.x.r.N 2 O   X 7 8 J K 6X7X0X0X8.;.@.X.X.X.X.O.#.$.$.O.( U y q - v G r.s.l.b.k.A 2 o         . , d N A S ",
"2 a j V t.k.n.H.Y.I.M.x.D j 1 O .   $ M K 6X7X7X8X1.<.] ] ^ ! ! ! ! / { } | | } ( ~ U i r 4 j A s.l.k.A 2 o           o , 2 a d ",
"o O , j S k.n.H.H.G.z.r.k 1 o .     7 J 6X9XhX0X1.' ` R Y Y P P P P T E / { } O.o.o.{ U q * , j r.k.k.A a O           . o o O O ",
"    O a D z.G.H.H.n.k.A a O         7 J 8XeXtX0X<.` u e u I I I I I Y T )  .@.*.&.&.o.W 9 % + s S z.z.r.k 1 o .                 ",
"    o g F M.I.T.H.n.s.B 1 .     . . * p 1.wXwX8.] R e e I P P P P P T ] ..2.4.,.:.-.%.Q 0 % o a y.M.M.x.D j 2 : o .             ",
"    o h p.!.~.'.T.n.s.B 1 .   o O . & p <.6.5.3.] Y u L P T E E E E ) ..8.qXwXw.,.=.#.Q 0 % o g p.P.^.P.x.r.N a , .             ",
"    > z h./..X|.Q.G.k.A 2 O o : : o & t _ *.*.@.^ Y I P T ! / / / /  .2.qXtXiXwX0.=.o.W 9 % O f p.!..X~.K.z.t.N 2 o             ",
". O 3 Z B.).+XoX'.L.z.r.l 3 3 1 1 o % 0 Q o.$.X.! P I P E / [ [ [ { +.7.rXpXaXuXq.:.o.W 9 % + l f./.+X}.W.G.k.A a O     . o O O ",
"2 a l p.V.XX@X+X}.W.K.c.p.Z z l 2 O % 0 Q O.$.X.! P I P E / [ [ [ { +.7.yXsXdXuXe.>.o.W 9 % @ l h.).@XoX'.J.k.A a O . o : 2 a s ",
"V A y.c.!.XX$X$XOX}.^.!.V.B.h.Z a O % 0 Q o.$.X.! P I P E / [ [ [ [ +.7.rXpXdXuXq.:.o.W 9 % @ z h.).@X}.W.G.k.A a O o : a N A S ",
"s.k.z.K.^.OX-X-X$X+XOXXXXX).V.p.f O % 0 Q o.$.X.! P I P E / { { [ { +.7.rXpXaXuXq.:.o.W 9 % > x N.).OX}.W.G.k.A 2 O o 1 N t.k.l.",
"b.n.G.R.[.+X-X-X-X-X-X-X-X-X/.f.f O % 0 Q o.$.O./ T Y T )  .+.+.+.+.3.8.tXsXaXuXq.:.o.W 9 % > x N.).+X}.W.G.k.V 2 O O a A s.n.F.",
"n.F.J.R.[.+X-X;X;X-X;X;X;X-X(.f.f o % 0 ~ #.&.#.{ E T ] <.2.7.7.7.7.8.rXpXfXdXuXe.>.#.Q 9 % @ c h.).+X}.W.G.k.V 2 O O a A k.n.H.",
"n.n.J.R.[.+X-X;X;X-X-X;X;X-X/.f.f o % 0 ~ #.&.$.} / ) ..8.qXrXyXrXrXtXpXfXgXdXuXe.>.%.Q 9 % @ c h.).OX}.W.G.k.V 2 O O a A k.n.H.",
"b.n.G.R.[.+X-X-X-X-X-X-X;X-X/.f.f + % 0 Q o.&.$.| {  .2.qXtXpXsXsXpXsXfXgXgXaXuX0.:.o.W 9 % > x N.).+X}.W.G.k.V 2 O O a A k.n.F.",
"b.n.G.R.[.+X-X-X-X-X-X-X-X-X(.f.C 1 * q U ( o.O.| } @.4.wXiXaXdXdXaXaXdXdXaXiXwX5.*.( U q * h F C. X+X}.W.G.k.V 2 O O a A k.n.F.",
"b.n.G.R.[.+X-X-X-X-X-X-X;X-X XV.y.k 4 r e U ~ ( } O.*.,.w.wXuXuXuXuXuXuXuXuXwX9.;._ U i r v F h.`.XX+X}.W.G.k.V 2 O O a A k.n.H.",
"b.n.G.R.[.+X-X;X;X-X-X;X;X-XXX!.c.r.G v - q y U ( o.&.:.,.0.q.e.q.q.q.e.e.0.5.;.' u q 8 v j.C.`. X+X+X}.W.G.k.V 2 O O a A k.n.H.",
"b.n.G.R.[.+X-X;X;X-X-X-X-X-XOX^.K.z.g.C 4 * w y ~ o.&.-.=.=.:.:.:.:.:.>.>.:.*._ u w * h p.V. X&X:X:X+X}.W.G.k.V 2 O O a A s.n.F.",
"b.n.G.R.[.+X-X;X;X-X-X$X$X+X.X~.I.G.k.r.j , * q U ( o.%.#.o.o.o.o.o.o.%.#.o.( U q * 1 C f./.+X$X-X-X+X}.W.G.k.V 2 O o 1 N t.k.l.",
"n.n.J.R.[.+X-X;X;X-X$X+X.X[.~.E.J.G.v.a.A j 4 - y U W Q Q W W W W W W Q Q W U 0 - 4 j y.c.^.}.OX@X$X@X}.W.G.k.A 2 O o : a N A S ",
"n.F.J.R.[.+X-X;X;X-X@X.X].E.L.J.G.n.b.l.s.S l 6 = q 0 0 0 9 9 9 9 9 9 9 9 9 q = 6 l r.k.M.L.W.[.OX$X@X}.W.G.k.A a O . o : 2 a s ",
"b.n.G.R.[.+X-X;X;X-X+X}.W.L.G.n.n.n.n.n.b.k.S 4 $ % % % % % % % % % % % % % % $ 4 S k.b.n.G.L.W.}.+X+X}.W.G.k.A a O     . o O O ",
"s.k.z.K.^.OX-X;X;X-X+X}.W.L.G.n.n.n.n.n.F.n.t.d O     X o @ > > @ + o .       O d t.n.n.n.n.G.R.]..X.X|.Q.G.k.A a O             ",
"V A y.c.!.XX-X;X;X-X@X.X[.W.R.J.G.n.n.n.F.n.a.k : . . @ 3 h z z z l g , O . . : k a.n.n.n.n.n.J.E.~.].W.R.G.k.A a O             ",
"2 a l p.V.XX-X;X;X-X$X+XOX}.].E.J.G.n.n.n.n.s.N , o o 3 Z p.N.N.B.f.F z 3 o o , N s.n.n.n.n.n.G.J.R.R.R.J.F.k.A a O             ",
". O 3 Z B.).-X-X-X-X-X$X@X+X.X~.I.G.n.n.n.n.s.B 1 o @ h p.V.).).)./.V.p.h + o 1 B s.n.F.n.n.n.n.G.G.G.G.F.n.k.A a O             ",
"    > c h./.+X$X-X-X-X-X$X+X.X~.I.G.n.n.F.n.k.A 2 O > c N.%X,X,X;X+X/.h.c > O 2 A k.n.F.n.n.n.n.n.n.n.b.v.k.t.N 2 o             ",
"    o f p.!.}.#X$X$X-X@XOX}.].E.J.G.n.n.F.n.k.A 2 O > b Z.*X2X<X;X.X!.p.f @ O 2 A k.n.F.F.n.n.n.n.n.v.k.a.S N a : .             ",
"    o g y.M.W.oX+X$X$XOX[.W.R.J.G.n.n.F.F.n.k.A 2 O < n S.=X3X2X,X^.M.y.g O O 2 A k.n.F.F.n.n.n.F.n.v.a.A j 2 : o               ",
"    O a A z.L.'.oX+X+X}.W.L.G.n.n.n.n.n.F.b.s.V 2 O < m A.4X5X2X1XU.z.A a O O 2 A s.b.F.n.n.n.n.n.n.k.S j , o .                 ",
"o O , a B t.z.K.~..X.X[.R.G.n.n.n.n.n.b.v.k.t.k 1 o < m D.4X5X2X XK.k.V 2 O o 1 N t.k.v.b.n.n.b.v.k.t.N 2 o     . o O O O O O O ",
"a a d j k V r.x.K.~.].W.Y.G.n.n.n.n.b.k.a.S N a ; o < m S.=X3X<X_.G.s.V 2 O o : a N S a.l.b.b.l.a.S N a O     . : 2 a a a a a a ",
"A A V N j d k D x.K.R.T.J.F.F.F.F.F.v.a.A j 2 ; . . > b Z.*X<X,X~.G.s.V 2 O . . ; 2 j A s.l.l.s.A j 2 O .     ; a N A A A A A A ",
"l.k.t.V a , 1 j r.z.G.G.F.n.n.n.n.n.k.S j , o       > x C.%X,XOX'.G.k.A a O       o , k r.k.k.r.k , o       o 2 N t.k.k.k.k.k.k.",
"F.n.s.A a O O 1 N t.k.k.k.k.k.k.k.s.t.N 2 o         > x N.).+XoX].L.z.D a O         o a V t.t.B a O       o , j S k.n.n.n.n.n.n.",
"H.n.k.A a o . O a N A A A A A A A A N a : .         > x N.(.@X#XoXW.M.i.f O         . , d N N d : .   . : 2 j A a.v.F.F.F.F.F.F.",
"H.n.k.A a o   . ; 1 a a a a a a a a 2 , o           > x N.(.@X$X#X}.!.f.l @           o , 2 1 : o   . : a B r.a.l.b.n.F.F.n.n.n.",
"F.n.k.A a O     . o O O O O O O O O o o .           > x N.).$X;X$X+X/.h.z >           . o o o .     o 2 N t.k.v.b.n.n.n.n.n.n.n.",
"F.n.k.A a O                                         > x N.).-X;X;X-X).N.x >                         O a A k.n.F.n.n.n.n.n.n.n.n.",
"F.n.k.A a O                                         > x N.).-X;X;X;X XN.x >                         O d S l.F.F.F.n.n.n.n.n.n.n."
};
