/* XPM */
static char *_ce450bec9e74850e2992952645d24882sd4VyUPir0pJRD1[] = {
/* columns rows colors chars-per-pixel */
"64 64 152 2 ",
"   c None",
".  c #010100",
"X  c #150D00",
"o  c #1F1400",
"O  c #151617",
"+  c #231600",
"@  c #2F1D00",
"#  c #231A0A",
"$  c #301F00",
"%  c #231F17",
"&  c #3F2800",
"*  c #23221F",
"=  c #222223",
"-  c #323438",
";  c #3E3E3E",
":  c #432B01",
">  c #482E00",
",  c #563600",
"<  c #5A3700",
"1  c #5D3A00",
"2  c #793D00",
"3  c #5E410D",
"4  c #6E4600",
"5  c #7D4201",
"6  c #714C0C",
"7  c #5F4A25",
"8  c #5F543F",
"9  c #45474C",
"0  c #494C50",
"q  c #56585C",
"w  c #58595A",
"e  c #5D5A53",
"r  c #6A6A6B",
"t  c #71757B",
"y  c #824600",
"u  c #844800",
"i  c #8D4E00",
"p  c #8D5203",
"a  c #8A5008",
"s  c #935301",
"d  c #905B00",
"f  c #9D5800",
"g  c #9B5C0D",
"h  c #8A5310",
"j  c #A45C00",
"k  c #9E6200",
"l  c #A26500",
"z  c #AD6600",
"x  c #A46800",
"c  c #AF6C0D",
"v  c #B86700",
"b  c #B56A01",
"n  c #B96900",
"m  c #B97200",
"M  c #AE6D17",
"N  c #A37017",
"B  c #AB7415",
"V  c #8D5B20",
"C  c #986D2F",
"Z  c #A86E25",
"A  c #B07523",
"S  c #B17F3D",
"D  c #C36D00",
"F  c #C37201",
"G  c #C17A00",
"H  c #CD7A00",
"J  c #D67E00",
"K  c #C27C1F",
"L  c #BC853F",
"P  c #D58200",
"I  c #DA8500",
"U  c #DB8B01",
"Y  c #CC831E",
"T  c #D68C17",
"R  c #D3891E",
"E  c #DC971E",
"W  c #E18E00",
"Q  c #E29001",
"!  c #EC9200",
"~  c #F49A02",
"^  c #F99C00",
"/  c #F69E0D",
"(  c #E79517",
")  c #E0991E",
"_  c #FFA70D",
"`  c #ECA01E",
"'  c #FFAB17",
"]  c #FEAC1F",
"[  c #CB8524",
"{  c #C69339",
"}  c #FEAE24",
"|  c #FFB324",
" . c #F3AC3F",
".. c #FFBC3F",
"X. c #A58141",
"o. c #B08857",
"O. c #AF906D",
"+. c #A6926E",
"@. c #D99D40",
"#. c #D29642",
"$. c #CE9A54",
"%. c #DEA450",
"&. c #E0AD55",
"*. c #F1B653",
"=. c #CEA36C",
"-. c #D9A762",
";. c #DAA864",
":. c #DBAF6F",
">. c #DEB47B",
",. c #E1B364",
"<. c #FFC757",
"1. c #FFC95E",
"2. c #FFCE65",
"3. c #FCC56C",
"4. c #FFD064",
"5. c #FFD068",
"6. c #878380",
"7. c #8F9297",
"8. c #929495",
"9. c #A59A8B",
"0. c #A89E95",
"q. c #A09E9D",
"w. c #DFBB8B",
"e. c #C5B49F",
"r. c #D6B993",
"t. c #E0BF94",
"y. c #ECC58B",
"u. c #F8D08B",
"i. c #E2C491",
"p. c #F3CD91",
"a. c #FFDA94",
"s. c #C0C0BF",
"d. c #DACFBC",
"f. c #E9CEAB",
"g. c #E7CBA6",
"h. c #EBD1AE",
"j. c #ECD6B8",
"k. c #ECD9BE",
"l. c #FFE1A2",
"z. c #FFE6AA",
"x. c #FFE8AD",
"c. c #FFEAB1",
"v. c #FAE3BE",
"b. c #D0C9C1",
"n. c #F7ECDB",
"m. c #F1E4D4",
"M. c #FFF3DB",
"N. c #F8EEE1",
"B. c #FFF6E3",
"V. c #FAF5EF",
"C. c #F7F2EF",
"Z. c #FDFBF9",
/* pixels */
"                                                                                                                                ",
"                                                                                                                                ",
"                                                                                                                                ",
"                                                                                                                                ",
"                                                                                                                                ",
"                                                                                                                                ",
"                                                                                                                                ",
"                                                                                                                                ",
"                                                                                                                                ",
"                                                                                                                                ",
"                                                                                                                                ",
"                                                                                                                                ",
"                                                                                                                                ",
"                                                                                                                                ",
"                                                                                                                                ",
"                                                                                                                                ",
"                                                  . . . . . . . . . . . . . .                                                   ",
"                                                . . . . . . . . . . . . . . . .                                                 ",
"                                                = = * % # # + + + + + + + + + o                                                 ",
"                                              - 0 w e 8 7 3 1 1 1 1 1 1 1 1 , > $                                               ",
"                                          . O 9 t 8.9.+.X.N x l l l l x x k d 4 : X .                                           ",
"                                        . . = q 7.s.d.i.&.E U U U U U W W U G d , + . .                                         ",
"                                        O = ; r q.b.k.p.*.` ! ! ! ! ! ~ ^ ~ U x 4 & + X                                         ",
"                                      - 9 q r 6.0.e.r.:.@.T P P P P I W ! ! I m d 4 , : $                                       ",
"                                  . = 0 t 7.q.0.9.O.o.S A c z z z z b F H J J H m x d 4 > o .                                   ",
"                                . . = w 8.s.b.e.O.C V h a p i i i i s j b F H I U U G d , + . .                                 ",
"                                . . * e 9.d.k.r.o.V 5 2 5 y u y y u p g M K R ( / ~ U k < + . .                                 ",
"                                . . % 8 +.i.p.:.S h 2 2 y i i i i s g Z L $.%. .} _ Q l 1 + . .                                 ",
"                                . . # 7 X.&.*.@.A a 5 y i f j j j j M L =.w.y.3...' W l 1 + . .                                 ",
"                                . . # 3 N E ` T c p y i f z n n v n K $.t.k.v.a.<.] U k < + . .                                 ",
"                                . . + 1 x U ! P z i u i j n D D D F [ -.f.n.M.z.2.} U k < + . .                                 ",
"                                . . + 1 l U ! P z i y i j n D D D F Y ;.h.N.B.c.5.} U k < + . .                                 ",
"                                . . + 1 l U ! P z i y i j v D D D D Y -.f.N.B.x.2.} U k < + . .                                 ",
"                                . . + 1 l U ! P z i u s j n F F D F [ ;.f.n.M.z.2.} U k < + . .                                 ",
"                                . . + 1 l U ! I b s p g M K [ Y Y [ #.>.j.N.M.z.2.} U k < + . .                                 ",
"                                . . + 1 x W ~ W F j g Z L $.-.;.-.;.>.g.m.V.B.x.4.| W l < + . .                                 ",
"                                . . + 1 x W ^ ! H b M L =.t.f.h.f.f.j.m.C.Z.B.x.4.| Q l < + . .                                 ",
"                                . . + 1 k U ~ ! J F K $.w.k.n.N.N.n.N.V.Z.Z.M.l.1.} U k < + . .                                 ",
"                                . . + , d G U I J H R %.y.v.M.B.B.M.M.B.B.M.v.u.*.) G p , + . .                                 ",
"                                  . o > 4 d x m H I (  .3.a.z.c.x.z.z.x.x.l.u.,.{ B d 4 > o .                                   ",
"                                      $ : , 4 d m U / } ..<.2.5.2.2.2.4.4.1.*.{ C 6 , : @                                       ",
"                                        X + & 4 x U ~ _ ' ] } } } } } | | } ) B 6 : + X                                         ",
"                                        . . + , d G U Q W U U U U U U W Q U G d , + . .                                         ",
"                                          . X : 4 d k l l k k k k k k l l k p 4 : X .                                           ",
"                                              $ > , < 1 1 < < < < < < < < < , > @                                               ",
"                                                o + + + + + + + + + + + + + + o                                                 ",
"                                                . . . . . . . . . . . . . . . .                                                 ",
"                                                  . . . . . . . . . . . . . .                                                   ",
"                                                                                                                                ",
"                                                                                                                                ",
"                                                                                                                                ",
"                                                                                                                                ",
"                                                                                                                                ",
"                                                                                                                                ",
"                                                                                                                                ",
"                                                                                                                                ",
"                                                                                                                                ",
"                                                                                                                                ",
"                                                                                                                                ",
"                                                                                                                                ",
"                                                                                                                                ",
"                                                                                                                                ",
"                                                                                                                                ",
"                                                                                                                                "
};
