/* XPM */
static char *a9773d90ccbb4320fce719d7fad54ddfn7jXTUYN3KPSBsFK[] = {
/* columns rows colors chars-per-pixel */
"64 64 89 1 ",
"  c #000000",
". c #0B0600",
"X c #0E0800",
"o c #120A00",
"O c #1A0E00",
"+ c #1D1100",
"@ c #241500",
"# c #2A1700",
"$ c #2E1900",
"% c #311B00",
"& c #342100",
"* c #3C2300",
"= c #3F2800",
"- c #432400",
"; c #492700",
": c #452900",
"> c #4D2B00",
", c #512C00",
"< c #4C3100",
"1 c #533300",
"2 c #5A3100",
"3 c #5D3B00",
"4 c #653700",
"5 c #633D00",
"6 c #693900",
"7 c #743F00",
"8 c #654000",
"9 c #6A4200",
"0 c #744200",
"q c #7B4300",
"w c #734900",
"e c #7E4A00",
"r c #824600",
"t c #834B00",
"y c #8A4C00",
"u c #904F00",
"i c #875600",
"p c #8B5400",
"a c #8C5900",
"s c #935300",
"d c #995600",
"f c #945C00",
"g c #9C5A00",
"h c #A35D00",
"j c #A85F00",
"k c #9E6300",
"l c #A56300",
"z c #AB6300",
"x c #A56900",
"c c #AB6D00",
"v c #B16600",
"b c #B56A00",
"n c #BB6C00",
"m c #B17000",
"M c #BC7400",
"N c #BE7900",
"B c #C16F00",
"V c #C37100",
"C c #CA7600",
"Z c #CC7900",
"A c #D27C00",
"S c #CD8200",
"D c #D58300",
"F c #DB8400",
"G c #DB8B00",
"H c #DD8900",
"J c #DD8C00",
"K c #E08700",
"L c #E08800",
"P c #E58B00",
"I c #E08F00",
"U c #E78E00",
"Y c #E88F00",
"T c #E29000",
"R c #E79300",
"E c #E99000",
"W c #EC9100",
"Q c #EA9400",
"! c #EE9500",
"~ c #F19700",
"^ c #F29A00",
"/ c #F79B00",
"( c #F79C00",
") c #F89C00",
"_ c #FC9F00",
"` c #FBA000",
"' c #FFA200",
"] c #FFA400",
"[ c #FFA900",
/* pixels */
"'''''''''''''''''''''''][[[[[[[[[[[[[[[[[[[[]]]]]]]]]]]]]])EFZVn",
"''''''''''''''''''''''''''''''''''''''''''''''''''''''''''/YFZVB",
"''''''''''''''''''''''`^QIJGHJJJJJJJJJJJGJJR!/())/////())/~LDCVB",
"''''''''''''''''''']]])TZmxxxxxxxxxxxxxxxxcNDUW~WEEEEEEEEEUFACVB",
"'''''''''''''''''''][]^Skw5335555555555335wfbZHLKFFFFFFFFFDAZCVV",
"''''''''''''''''''']]'Icw:@++@@@@@@@@@@++@*5pbCAZZZZZZZZZZCCVVVV",
"'''''''''''_))))''')^INa1+                O=6sznnVVVVVVVVVVVVVVV",
"'''''''']''/~EW/_')RSca5&X                .@:6rgznVVVVBBBBVVVVVV",
"''''''']]')~UHHW)'^Sxw1&+.                 o@*1qgbVCVVVVVVVVVVVV",
"'''''''''')EHAAL~/Imw:+X.                  ..O%2tzVCVVVVVVVVVVVV",
"''''''''))~UFAADHGNa1+                        O=6sznnVVVVVVVVVVV",
"''']]'')~EUPLHDZMca5&X                        .@>6tgvnCCCVVVVVVV",
"]]]]]])~UHFLEWHMfw1&+.                        .o@=2qgnCZCVVVVVVV",
"'''''')EHAAHW!Gcw=+X.                          ..O%1tzVCVVVVVVVV",
"//())/~UFAZDHGNa1+                                O=6szbbbnnBVVV",
"EEEEEEUULFDZMca5&X                                .#>6rpdhzvnVVV",
"FFFFFFHLYUDMfw1&+.                                .O#=,60ydjbnVC",
"ZZCCCZALW!Gcw=+X.                                  .XO#-20ygznVV",
"VVVVVVZHW!Dk3@                                        o%,7ygzvnn",
"VVVBBVCFUUZf1O                                        X%2qshhhjz",
"VVVVVVCAHFMp>O                                        o*6shhhdss",
"VVVVVVVCZCzt>+                                        O:0gvzdyrr",
"nnnnnnnnBnh0:O                                        O:qhzhsrq7",
"zzzzzzzzvjs6*O                                        O-0shhurq7",
"dddddddggsr4%o                                        O*4yssyrqq",
"rrrrrrryyr7,%o                                        o%,7rrqqq0",
"66666666662-@X                                        X@-2466666",
">;;;:::;;;*$O.                                        .O$-;>>;;:",
"###@@@@@@#@Oo.                                        .oO@###@@@",
"oooooooooXX..                                          ..XXooooo",
"  .XO++OX.                                                ..oOO+",
"  .+*><*@.                                                .O#*-:",
"  o*8ip9=o                                                X$>6qe",
"  +1aNNf1+                                                O-6slv",
"  @5xGGc5@                                                +>ezVZ",
"  @8cTTm9@                                                +>tzCA",
"  @5cIIc8@                                                +>rzVA",
"  @5xGJc8@                                                +>ezVZ",
"  @5xGJc8@                                                +>ezVZ",
"  @5xJJc8@                                                +>ezVA",
"  @5cJJc8@                                                +>rzVA",
"  @5xGGc5@                                                +>ezVZ",
"  @3xDDx5@                                                O:qhnV",
"  @1fZZk3@                                                O-6shv",
"  +1pMMf1+                                                o*4rsg",
"  +>tzzp,+                                                o%,7ry",
"  +>elzt>+                 ..XooooooooooooooooX..         o$>6qr",
"  +>ehlr>O                .o+#$%%%$$$$$$$$%%%$#+o.        o$>47q",
"  +>ellr>+                .+%:,,,,,,,,,,,,,,,,:%+.        o$>47q",
"  +>ellr>+                X@-266666666666666662-@X        o$>6qq",
"  +>rzlt>+                X@-246666666666666642-@X        o$>6qr",
"  +>tzzt>+                .O%->,,>>>>>>>>>>,,>-%O.        o$,6qr",
"  +>tzzt>+                 XO@#$$##########$$#@Oo.        o%,6qr",
"  +>ellr>+                 ..XooooooooooooooooX..         o$>6qq",
"  O-9ss0-O         ..XooooooooooooooooooooooooX..         o#:266",
"  o$,661%o        .o+#$%%%$$$$#############$$#@Oo.        X+%->,",
"  .+$*=%+.        .+%:,,,,,,>>>>>>>>>>>>>>>,,>-%O.        .oO@$$",
"  ..oOOo..        X@-26666666666666666666666642-@X         ..Xoo",
"                  X@-24666666666666666666666642-@X              ",
"                  .+%:>,,>>>>>>>>>>>>>>>>>>,,>:%+.              ",
"                  .o+#$$$$$$$$$$$$$$$$$$$$$$$$#+o.              ",
"                   ..XooooooooooooooooooooooooX..               ",
"                                                                ",
"                                                                "
};
