/* XPM */
static char *_fdb61b0fde0449caee1b4a2f48c6778YlQERQhOG2j5GN04[] = {
/* columns rows colors chars-per-pixel */
"64 64 154 2 ",
"   c None",
".  c #010100",
"X  c #070900",
"o  c #0A0C00",
"O  c #100F00",
"+  c #1B0F00",
"@  c #0E1200",
"#  c #0F1900",
"$  c #121300",
"%  c #1B1300",
"&  c #141B00",
"*  c #1A1E00",
"=  c #231600",
"-  c #251800",
";  c #281F00",
":  c #1C2300",
">  c #222400",
",  c #2C2200",
"<  c #232B00",
"1  c #2C2D00",
"2  c #332500",
"3  c #382300",
"4  c #312F00",
"5  c #263200",
"6  c #2A3400",
"7  c #2D3900",
"8  c #333300",
"9  c #3A3500",
"0  c #333A00",
"q  c #3E3E00",
"w  c #432B00",
"e  c #4B2F00",
"r  c #433600",
"t  c #4F3200",
"y  c #403800",
"u  c #553600",
"i  c #5A3600",
"p  c #503900",
"a  c #5C3B00",
"s  c #613D00",
"d  c #364300",
"f  c #3A4300",
"g  c #364900",
"h  c #3E4C00",
"j  c #3E5100",
"k  c #424400",
"l  c #4A4200",
"z  c #414D00",
"x  c #4B4C00",
"c  c #564600",
"v  c #5A4400",
"b  c #544C00",
"n  c #445300",
"m  c #4D5400",
"M  c #495800",
"N  c #535300",
"B  c #585700",
"V  c #535D00",
"C  c #5B5C00",
"Z  c #654500",
"A  c #724800",
"S  c #794C00",
"D  c #605800",
"F  c #695E00",
"G  c #7A5400",
"H  c #735C00",
"J  c #546200",
"K  c #5C6200",
"L  c #646400",
"P  c #6C6100",
"I  c #646B00",
"U  c #696B00",
"Y  c #756C00",
"T  c #667100",
"R  c #6D7300",
"E  c #757600",
"W  c #7E7000",
"Q  c #757C00",
"!  c #7B7B00",
"~  c #8F5B00",
"^  c #925E00",
"/  c #836300",
"(  c #8A6300",
")  c #836F00",
"_  c #956300",
"`  c #9D6500",
"'  c #857200",
"]  c #8E7700",
"[  c #847900",
"{  c #937A00",
"}  c #9E7A00",
"|  c #A36500",
" . c #A66A00",
".. c #A96A00",
"X. c #A07C00",
"o. c #AA7C00",
"O. c #B67300",
"+. c #B87500",
"@. c #C17B00",
"#. c #7E8200",
"$. c #838400",
"%. c #838800",
"&. c #8B8B00",
"*. c #9B8100",
"=. c #928B00",
"-. c #8E9000",
";. c #8F9000",
":. c #909000",
">. c #919100",
",. c #929100",
"<. c #939300",
"1. c #929200",
"2. c #949400",
"3. c #929400",
"4. c #AE8300",
"5. c #A98B00",
"6. c #B78500",
"7. c #BE8B00",
"8. c #BE8900",
"9. c #C98500",
"0. c #C78D00",
"q. c #CD8800",
"w. c #CB8D00",
"e. c #D48600",
"r. c #D08B00",
"t. c #D88900",
"y. c #DA8B00",
"u. c #DB8B00",
"i. c #DD8A00",
"p. c #DD8B00",
"a. c #DC8A00",
"s. c #DE8B00",
"d. c #DD8C00",
"f. c #D29000",
"g. c #DD9500",
"h. c #E08E00",
"j. c #E18F00",
"k. c #E28F00",
"l. c #E18E00",
"z. c #E69200",
"x. c #E79300",
"c. c #E19700",
"v. c #EF9700",
"b. c #E79900",
"n. c #E99900",
"m. c #F39A00",
"M. c #F69C00",
"N. c #F39E00",
"B. c #F99E00",
"V. c #FB9F00",
"C. c #F7A100",
"Z. c #FFA200",
"A. c #FEA300",
"S. c #FFAA00",
/* pixels */
"                                                                                                                                ",
"                                                                                                                                ",
"                                                                                                                                ",
"                                                                                                                                ",
"                                                                                                                                ",
"                                                                                                                                ",
"                                                                                                                                ",
"                                                                                                                                ",
"                                  . . . . . .                             . . . . . .                                           ",
"                                . . . . . . . .                         . . . . . . . .                                         ",
"                                = = = = - - = =                         = = - - = = = =                                         ",
"                              3 e u a a s s a t 3                     3 t a s s a a u e 3                                       ",
"                          . = e A ~ `  ... ._ S e + . . . . . . . . + e S _  ... .` ~ A e = .                                   ",
"                        . . = u ~ @.t.z.z.t.@.^ a = . . . . . . . . = a ^ @.t.z.z.t.@.~ u = . .                                 ",
"                        . . = a ` t.B.Z.M.h.@.^ a , $ o o $ $ o o $ , a ^ @.h.M.Z.B.t.` a = . .                                 ",
"                        . . = a  .h.B.m.t.+.` G v y 8 1 1 8 8 1 1 8 y v G ` +.t.m.B.h. .a = . .                                 ",
"                        . . = a  .h.v.e. .S Z v b N N N N N N N N N N b v Z S  .e.v.h. .a = . .                                 ",
"                        . . - s  .t.h.O.S w 2 9 N U E ! ! E E ! ! E U N 9 2 w S O.h.t. .s - . .                                 ",
"                        . . - s  .t.t...s - $ 1 N E &.&.&.&.&.&.&.&.E N 1 $ - s ..t.t. .s - . .                                 ",
"                        . . - s ..a.a.| i + o < m ! &.2.<.<.<.<.2.&.! m < o + i | a.a...s - . .                                 ",
"                        . . - s ..a.a.| i % o < m ! &.<.<.&.&.<.<.&.! m < o % i | a.a...s - . .                                 ",
"                        . . - s  .t.t. .a - $ 1 N E &.<.&.&.&.&.<.&.E N 1 $ - a  .t.t. .s - . .                                 ",
"                        . . = a ` q.r. .Z 2 > 0 C ! &.&.&.&.&.&.&.&.! C 0 > 2 Z  .r.q.` a = . .                                 ",
"                        . . % p ( 6.7.} H l q x L ! &.&.&.&.&.&.&.&.! L x q l H } 7.6.( p % . .                                 ",
"                        . . % r H *.5.*.W L C I E $.&.&.&.&.&.&.&.&.$.E I C L W *.5.*.H r % . .                                 ",
"                        . . $ 9 D [ =.=.$.! ! ! $.%.&.&.&.&.&.&.&.&.%.$.! ! ! $.=.=.[ D 9 $ . .                                 ",
"                        . . $ 1 N E $.&.&.&.&.&.&.&.&.&.&.&.&.&.&.&.&.&.&.&.&.&.&.$.E N 1 $ . .                                 ",
"                        . . @ < k I Q $.&.-.<.<.&.&.&.&.&.&.&.&.&.&.&.&.<.<.-.&.$.Q I z < @ . .                                 ",
"                        . . o > f V T Q %.&.<.<.=.&.&.&.&.&.&.&.&.&.&.=.<.<.&.%.Q T V f > o . .                                 ",
"                        . . o : 0 n K T Q $.&.&.&.&.&.&.&.&.&.&.&.&.&.&.&.&.$.Q T K n 0 : o . .                                 ",
"                        . . X & < d n V I E ! ! #.$.$.$.$.$.$.$.$.$.$.#.! ! E I V n d 5 & o . .                                 ",
"                        . . X @ * < 0 f k N C L U E Q Q Q Q Q Q Q Q E U L C N k f 0 5 : & X .                                   ",
"                        . . . X @ & * : < 1 9 k N K I T T I I T T I K N k 0 1 < : * & $ @                                       ",
"                        . . . . X X o o o $ * 1 f M V J J V V J J V M f 1 * $ o o o o X                                         ",
"                        . . . X X X o o X o $ : 6 g h z z h h z z h g 6 : $ o X X o o o                                         ",
"                      . . . . X $ & * * * & * : < 5 5 5 5 5 5 5 5 5 5 < : * & & * * * & @                                       ",
"                  . . . . . X @ : 5 7 0 7 6 5 < : & & # # & & # # & & : < 5 6 7 7 7 6 < & . . . . . .                           ",
"                . . . . . . X & 5 d h n n h d 6 : $ o X X o o X X o $ : 6 d h n n h d 5 * o . . . . . .                         ",
"                . . . . X X $ : 6 d z n M n n f 4 ; = = = = = = = = ; 4 f n n M n z d 6 < * $ $ $ $ $ $                         ",
"                . . X X $ * : < 5 7 d h n M m N c a a i i a a i i a a c N m M n h d 0 8 8 8 8 8 8 8 4 1 *                       ",
"                . . X $ : 5 7 5 < < < 6 g n V P / _ ` | | | | | | ` _ / P V n g 6 < < 8 k x N C C N b q 1 $ .                   ",
"                . . X * 5 d d 6 : $ $ : 7 z K ) o.9.s.h.h.s.s.s.h.s.9.o.) K z 7 : $ * 8 x U E ! ! Q U x 1 $ . .                 ",
"                . . o : 6 d d 5 & o o & 5 z L ] 7.b.Z.A.Z.Z.Z.Z.A.Z.b.7.] L z 5 & o $ 8 N E &.-.&.$.R m 1 $ . .                 ",
"                  . o * < 6 5 : @ X X & 5 z L { 0.N.S.S.S.S.S.S.S.S.N.0.{ L h 5 # X $ 8 C ! -.3.&.#.I x 1 @ . .                 ",
"                      $ * : * $ X . X & 5 z L { 0.N.S.S.S.A.A.S.S.S.N.0.{ L h 5 # X $ 8 C ! &.&.#.R K f > o . .                 ",
"                        o o X X . . X & 5 z L ] 7.b.Z.A.A.Z.Z.A.A.Z.b.7.] L h 5 & o $ 8 N E $.#.R K n 0 : o . .                 ",
"                        . . . . . . o & 6 z K ' 4.f.n.M.Z.Z.Z.Z.M.n.f.4.' K z 5 & o $ 1 x L R U K n d 5 & o . .                 ",
"                          . . . . . o * 6 z K Y { 4.0.g.N.Z.Z.N.g.0.4.{ Y K z 6 & o o * 8 x N x f 0 5 : & X .                   ",
"                              . . . o : 7 z V L Y ' } 7.c.C.C.c.7.} ' Y L V z 7 * o X O * 1 1 1 > : & & @                       ",
"                                . . o * 6 h M V V K Y X.w.n.n.w.X.Y K V V M h 7 : o . X X $ $ $ o o o X                         ",
"                                . . o * 5 d h n n M K ) o.9.9.o.) K M n n z d 5 * o . . . . . . . . . .                         ",
"                                  . X & : 5 7 d g j m F / _ _ / F N n h g 0 6 < & X . . . . . . . . .                           ",
"                                      o $ & : 5 d h n x c a v c N M n g 6 < * & @                                               ",
"                                        X o $ < 0 z n f 4 , ; 4 f z h 0 < $ o X                                                 ",
"                                        o $ * 6 f M n 0 : o o & 5 d d 5 * X . .                                                 ",
"                                      * 1 8 q x V K V f : X . o : < 5 : $ X . . .                                               ",
"                                  . $ 1 k N D U E E I x < o . . @ & & $ X . . . . . .                                           ",
"                                . . $ 1 x U ! $.%.#.R N 1 $ . . . X X X X . . . . . . .                                         ",
"                                . . $ 1 x L E ! ! E L x 1 $ . . . . . . . . . . . . . .                                         ",
"                              . . . o > 8 x C C C B x 8 > o . . . . . . . . . . . . . . .                                       ",
"                          . . . . . X $ > 1 8 8 8 8 1 > $ X . . . . . . . . . . . . . . . . .                                   ",
"                        . . . . . . . X o $ $ $ $ $ $ o X . . . . . . . . . . . . . . . . . . .                                 ",
"                        . . . . . . . . . . . . . . . . . . . . . . . . . . . . . . . . . . . .                                 ",
"                        . . . . . . . . . . . . . . . . . . . . . . . . . . . . . . . . . . . .                                 "
};
