/* XPM */
static char *_f631f24557f439bf4b3282c445b5a9boUEejfjtLO0IV5oR[] = {
/* columns rows colors chars-per-pixel */
"64 64 227 2 ",
"   c #010001",
".  c #070900",
"X  c #0A0C00",
"o  c #03000B",
"O  c #0D0509",
"+  c #160E01",
"@  c #0E1200",
"#  c #0F1900",
"$  c #121300",
"%  c #1D1301",
"&  c #141B00",
"*  c #191E00",
"=  c #181C0B",
"-  c #050114",
";  c #06001A",
":  c #08031B",
">  c #0A0A1C",
",  c #0C0916",
"<  c #190D17",
"1  c #151517",
"2  c #231600",
"3  c #271B02",
"4  c #241618",
"5  c #1C2300",
"6  c #1D220C",
"7  c #1E2217",
"8  c #222400",
"9  c #232B00",
"0  c #2C2D00",
"q  c #2B2906",
"w  c #342903",
"e  c #263201",
"r  c #2A3401",
"t  c #2D3900",
"y  c #2A320B",
"u  c #333300",
"i  c #333A00",
"p  c #3C3A03",
"a  c #2C2E18",
"s  c #070121",
"d  c #080026",
"f  c #090923",
"g  c #09002B",
"h  c #0B0134",
"j  c #0D003B",
"k  c #0E0C38",
"l  c #150A3A",
"z  c #15152D",
"x  c #271835",
"c  c #272529",
"v  c #423700",
"b  c #5A3600",
"n  c #5C3B00",
"m  c #523605",
"M  c #422A08",
"N  c #613D00",
"B  c #442A26",
"V  c #364301",
"C  c #3A4300",
"Z  c #3E4C00",
"A  c #364900",
"S  c #3E5100",
"D  c #414D00",
"F  c #4B4C00",
"G  c #464400",
"H  c #564701",
"J  c #445300",
"K  c #4D5400",
"L  c #495800",
"P  c #535300",
"I  c #535D00",
"U  c #5B5C00",
"Y  c #585700",
"T  c #674402",
"R  c #7A4D00",
"E  c #655B00",
"W  c #755900",
"Q  c #6B4215",
"!  c #5C6200",
"~  c #546200",
"^  c #646400",
"/  c #646B00",
"(  c #6A6B00",
")  c #6B6301",
"_  c #756C00",
"`  c #667100",
"'  c #6D7300",
"]  c #757600",
"[  c #757C00",
"{  c #7B7B00",
"}  c #7E7000",
"|  c #0F0044",
" . c #0F0048",
".. c #10004B",
"X. c #120A4D",
"o. c #140946",
"O. c #141247",
"+. c #120154",
"@. c #14015B",
"#. c #150B57",
"$. c #151553",
"%. c #18185A",
"&. c #28184B",
"*. c #1D2D58",
"=. c #223259",
"-. c #150064",
";. c #17006C",
":. c #19026D",
">. c #190B65",
",. c #1A1766",
"<. c #190075",
"1. c #1A007B",
"2. c #1C097B",
"3. c #1D1976",
"4. c #231270",
"5. c #8C5902",
"6. c #925E01",
"7. c #846800",
"8. c #9D6500",
"9. c #946400",
"0. c #887500",
"q. c #977A00",
"w. c #A36500",
"e. c #A66A00",
"r. c #A96A00",
"t. c #A77C00",
"y. c #BB7700",
"u. c #C17B00",
"i. c #7E8200",
"p. c #838400",
"a. c #8B8B00",
"s. c #838800",
"d. c #968700",
"f. c #8F9000",
"g. c #929200",
"h. c #AC8500",
"j. c #BE8A00",
"k. c #B78500",
"l. c #C78D00",
"z. c #CA8800",
"x. c #DC8B00",
"c. c #D48800",
"v. c #D89300",
"b. c #E18E00",
"n. c #E79700",
"m. c #F39D00",
"M. c #FA9F00",
"N. c #FEA300",
"B. c #FFAA00",
"V. c #F7A100",
"C. c #1D0284",
"Z. c #1E008C",
"A. c #1E0A84",
"S. c #1F0091",
"D. c #1F1084",
"F. c #221887",
"G. c #22009D",
"H. c #220697",
"J. c #241A94",
"K. c #200289",
"L. c #24248B",
"P. c #27259A",
"I. c #2C349E",
"U. c #2300A2",
"Y. c #2501AB",
"T. c #2608AB",
"R. c #260FA6",
"E. c #2816A7",
"W. c #2700B5",
"Q. c #2700B8",
"!. c #2800BB",
"~. c #2909B9",
"^. c #2B16B9",
"/. c #2B29A7",
"(. c #2E27B7",
"). c #2F2FB6",
"_. c #344D9F",
"`. c #3B639F",
"'. c #2A02C2",
"]. c #2B09C3",
"[. c #2C03CA",
"{. c #2D0BCB",
"}. c #2E11CB",
"|. c #2E17C3",
" X c #3117CE",
".X c #2F0FD0",
"XX c #3116D3",
"oX c #3119D4",
"OX c #331CDA",
"+X c #3316DD",
"@X c #300ED5",
"#X c #3128C8",
"$X c #3335C6",
"%X c #3524DC",
"&X c #3527D7",
"*X c #3531D5",
"=X c #3732D9",
"-X c #3838DC",
";X c #3935DE",
":X c #351CE2",
">X c #3625E2",
",X c #3728E4",
"<X c #3829E6",
"1X c #392CEA",
"2X c #3926ED",
"3X c #3A3AE2",
"4X c #3B31ED",
"5X c #3C3AEC",
"6X c #3B2CF2",
"7X c #3C35F2",
"8X c #3E39F6",
"9X c #3F3BF9",
"0X c #3E35FB",
"qX c #403EFC",
"wX c #3C44DC",
"eX c #3F41F4",
"rX c #4359DC",
"tX c #4C74DB",
"yX c #4141FF",
"uX c #4243FF",
"iX c #4142FF",
"pX c #4243FF",
"aX c #4446F7",
"sX c #4853F5",
"dX c #4F69F8",
"fX c #5681F6",
"gX c #5080DB",
/* pixels */
"!.!.!.Q.Q.!.].XX,X8XyXyXyXyXyXuXuXuX9X1XOX].U.;.j ; f $.P.=XqXuXuXyX3X/.%.f                 - j <.G.Q.!.Q.Q.].XX,X8XyXyXyXyXyXyX",
"!.!.!.Q.Q.!.].XX,X8XyXyXyXyXyXyXyXyX8X<XOX].U.;.j ; f %.P.-XyXuXuXyX-X/.%.f                 ;  .<.U.!.!.!.!.].oX,X8XyXyXyXyXyXyX",
"!.!.!.Q.Q.!.].XX,X8XyXuXyXyXyXqXqX8X4X>XXX].U.;.j ; f %.I.wXaXaXuX8X=XP.%.f             o - g +.1.U.!.'.].].}.OX1X8XyXyXyXyXyXyX",
"!.!.!.Q.Q.!.].XX,X8XyXuXuXyXyX9X7X1X>XOX.X~.U.;.j ; f *._.rXsXsXuX4X#XJ.#.:         o - d j +.;.Z.Y.!.].{.XXOX,X4X9XyXyXyXyXyXyX",
"!.!.!.Q.Q.Q.].XX,X8XyXuXuXyXqX7X,XOXXX{.{.!.U.;.j ; f =._.tXdXdXaX&X^.A.X.;         o d  .-.1.S.U.W.~.{.oX%X<X7X8XqXyXyXyXyXyXyX",
"!.!.!.Q.Q.!.].oX,X8XyXuXuXyX8X1XOX}.].].'.!.G.;.j ; z =.`.tXfXdXaX XT.1. .;         - j -.Z.U.Y.W.!.].XX>X4X8XqXqXyXyXyXyXyXyXyX",
"!.!.!.!.!.].}.OX1X8XyXyXqX8X4X&X^.T.U.U.U.U.Z.-.j ; z =.`.gXfXdX3X|.G.;.j -         - j <.G.!.!.!.!.].XX,X8XyXyXyXyXyXqX9X8X8X8X",
"Q.!.!.].{.XXOX,X7X9XqX9X7X<X&X^.H.C.<.<.<.1.<.@.h ; f =._.tXdXsX;X].G.-.h -         - j ;.U.'.'.'.!.].oX1X9XuXuXuXyXqX8X4X1X,X,X",
"Q.!.].{.oX>X1X7X9XqX9X7X>XoX|.H.<.+. .j |  ... .h ; f *._.rXsXaX%X].S.@.d o         o g -.U.'.'.'.!.].oX1X9XuXuXuXyX9X4X>XOXXXXX",
"Q.!.]. X%X4X8XqXyXyX8X1XOX}.T.C.+.g ; - - ; d h d - f %.I.wXaX7X:X].Z...:             : +.Z.!.!.!.!.].XX,X8XyXuXuXyX8X<XOX}.].].",
"Q.!.].XX,X8XyXuXuXyX8X,X X~.H.4.x 4 2 2 2 2 4 < > - > $.L.$X=X&X XT.2.o.< % 2 2 2 2 % < l :.K.U.Y.Q.].XX>X4X8XqXyXyX8X,XXX].!.Q.",
"Q.!.].XX,X9XyXuXuXyX5X*X^.J.4.&.B m n n N N m M 3 O - k ,.L.P./.E.F.,.x M b N N N n m w 4 l +.<.S.Y.].{.OX>X1X7X9XqX8X,XXX].Q.Q.",
"Q.!.].XX,X8XyXuXuXyX3X#XP.,.&.B Q 5.8.e.r.e.6.T w + o f k $.%.,.,.$.x B T 6.e.r.r.8.5.T w < d  .<.U.'.{.{.XXOX,X7X9X8X,XXX].Q.Q.",
"Q.!.].XX,X8XyXuXyXyX3X/.3.l 4 m 5.y.x.n.n.x.y.5.m %   o - > f f f f 4 m 5.y.x.n.n.x.y.5.m % o d +.S.!.'.].].}.OX1X8X8X,XoX].!.Q.",
"Q.!.].XX,X8XyXuXyXyX-X/.%.f 2 n 8.x.M.N.m.b.u.6.n w $ X X $ $ X X $ w n 6.u.b.m.N.M.x.8.n 2   ;  .1.U.Y.W.!.].oX1X8X8X<XoX].!.Q.",
"Q.!.].XX,X8XyXuXuXyX=XP.$.: 2 n e.b.M.m.c.y.8.W H v u 0 0 u u 0 0 u v H R 8.y.c.m.M.b.e.n 2   ; j @.1.Z.U.W.].+X6X9X9X1XoX].!.Q.",
"Q.!.].XX,X9XyXuXuXyX=XP.X.: 2 n e.b.m.c.e.R T H H P P P P P P P P P P H H T R e.c.m.b.e.n 2 o s g j ..;.Z.Y.{.:X6XqX9X1XoX].!.Q.",
"Q.!.].XX,X8XyXuXuXyX=XJ.X.: 2 N e.x.b.y.R M w p P ( ] { { ] ] { { ] ( P p w M R y.b.x.e.N 2 - d g d h ..1.U.].OX<X8X7X,XoX].!.Q.",
"Q.!.]. X%X4X8XqXyXyX=XJ.X.: 2 N e.x.x.r.N 2 $ 0 P ] a.a.a.a.a.a.a.a.] P 0 $ 2 N r.x.x.e.N 2 - g h d g  .;.Z.T.^.#X=X=X&X}.].!.Q.",
"!.!.].{.oX>X1X7X9XqX=XJ.X.: 2 N r.x.x.w.b % X 9 K { a.g.g.g.g.g.g.a.{ K 9 X % b w.x.x.r.N 2 - h  . . ...@.;.2.F.J.P./.E.^.!.!.'.",
"'.'.'.].{.XXOX,X7XqX=XJ.X.: 2 N r.x.x.w.b % X 9 K { a.g.g.a.a.g.g.a.{ K 9 X % b w.x.x.r.N 2 ; j @.;.;.@.+... .X.$.%.,.D.H.W.'.'.",
"!.!.!.!.!.].}.OX1X8X=XJ.X.; 2 N e.x.x.e.n 2 $ 0 P ] a.g.a.a.a.a.g.a.] P 0 $ 2 n e.x.x.e.N 2 ; | ;.Z.Z.;...d ; - - f h @.C.U.!.'.",
"U.U.U.Y.Y.Q.].XX,X4X#XF.X.- 2 n 8.z.c.e.T w 8 i U { a.a.a.a.a.a.a.a.{ U i 8 w T e.c.z.8.n 2 ;  .1.G.G.<. .;         - j ;.Z.U.Y.",
"<.<.1.Z.G.Y.!.{.OX%X^.3.j - % m 7.k.j.q.W G p F ^ { a.a.a.a.a.a.a.a.{ ^ F p G W q.j.k.7.m % ;  .1.U.U.<.j -         o d ..-.<.1.",
"j  .+.;.Z.U.!.[..X XR.>.g o % v W d.h.d.} ^ U / ] p.a.a.a.a.a.a.a.a.p.] / U ^ } d.h.d.W v % ;  .1.U.U.<.j -           - d j  ...",
"- ; g +.1.U.!.[.[.].H.+.s   $ u E 0.d.d.p.{ { { p.s.a.a.a.a.a.a.a.a.s.p.{ { { p.d.d.0.E u $ ;  .1.U.U.<. .;           o - - ; ; ",
"    ;  .2.T.].{.[.!.Z...;   $ 0 P ] p.a.a.a.a.a.a.a.a.a.a.a.a.a.a.a.a.a.a.a.a.a.a.p.] P 0 $ ;  .1.T.T.C.@.h - o                 ",
"    - o.2.^. X@X{.!.C. .-   @ 9 G / [ p.a.f.g.g.a.a.a.a.a.a.a.a.a.a.a.a.g.g.f.a.p.[ / D 9 @ - | A.^.^.R.2.+.j d - o             ",
"    - O.F.#X%X:X@X!.C.| -   X 8 C I ` [ s.a.g.g.f.a.a.a.a.a.a.a.a.a.a.f.g.g.a.s.[ ` I C 8 X - o.F.|.&X|.R.C.-. .d o             ",
"    f %.P.*X4X2X+X].Z. .-   X 5 i J ! ` [ p.a.a.a.a.a.a.a.a.a.a.a.a.a.a.a.a.p.[ ` ~ J i 5 X ; X.J.#X4X%X|.T.Z.-.j -             ",
"o ; k ,./.-X8X6X:X}.H.+.s o . & 9 V J I / ] { { i.p.p.p.p.p.p.p.p.p.p.i.{ { ] / I J C e = , h >./.=X8X2XOX].U.<.| ;     o - ; ; ",
"j  .#.F.(.3X9X0X2XOXE.>.k o . @ * 9 t C G P U ^ ( ] [ [ [ [ [ [ [ [ ] ( ^ U P G C i y 7 z O.>.J.#X5X9X6X:X{.U.<.| ; o - d j  . .",
";.1.A.E.#X5XqXqX7X1X#XF.O.:   . @ & * 5 9 0 i G P ! / ` ` / / ` ` / ! P G i 0 9 5 * = z %.F./.#X3X9X9X2XOX].U.<.| ; - d  .-.<.1.",
"G.U.T.|.&X8XyXyXqX8X*XP.$.>     . . X X X $ * 0 C L I ~ ~ I I ~ ~ I L C 0 * $ X X X , O.3.(.=X5XeXqX8X2XOX].U.<.j ; - j -.Z.U.Y.",
"Q.!.].XX,X8XaXaX8X3X).L.$.>   . . . X X . X $ 5 r A Z D D Z Z D D Z A r 5 $ X . . X , O.F.(.-X3X3X-X=X&XXX~.U.;.j ; ; | <.G.!.'.",
"!.'.{.XX,X8X8X3X$X).L.,.k -   . $ & * * * * * 5 9 9 e e e e e e e e e 9 5 * * * * * = x ,.P./././././.(.|.~.U.;.j ; ; | 1.U.!.[.",
"!.!.{.XX,X8X5X$XP.3.$.k > o . @ 5 r t i t r e 9 5 * & # # & & # # & * 5 9 e r t t t y c x $.,.,.%.,.3.J.E.~.U.;.j ; ; | <.U.!.[.",
"Q.!.].XX,X8X3X).3.O.> o     . * r V Z J J Z V t 5 $ X . . X X . . X $ 5 t V Z J J Z V y 7 1 f > > f l ,.J.T.U.;.j ; ; | <.U.!.'.",
"Q.!.].XX,X8X-X/.%.f     . . $ 5 r V D J L J J C 0 3 2 2 2 2 2 2 2 2 3 0 C J J L J D V t 9 * $ $ $ $ 1 $.4.H.Z.;.j ; ; | <.U.!.'.",
"Q.!.].XX,X8X-XP.$.- . . $ * 5 9 r t V Z J L K P H n n b b n n b b n n H P K L J Z V i t u u u u u u y c &.>.;.@.h ; ; | <.U.!.[.",
"Q.!.].XX,X8X-XP.$.- . $ 5 r t r 9 8 9 r A J I ) 7.9.8.w.w.w.w.w.w.8.9.7.) I J A r 9 9 u G F P U U P F p c l .. .g ; ; | 1.U.!.[.",
"Q.!.].XX,X8X-X/.%.f X * r V V r 5 $ $ 5 t D ! 7.t.z.x.b.b.x.x.b.b.x.z.t.7.! D t 5 $ * u F ( ] { { [ ) F y 1 d h d - ; | <.G.!.'.",
"Q.!.].XX,X8X3X).3.O.1 6 r V V r & X X * e D ^ 0.j.n.N.N.N.N.N.N.N.N.n.j.0.^ D e & X $ u P ] a.f.a.p.' K 0 $ - d d - - h -.Z.U.Y.",
"!.!.].XX,X8X5X$XP.3.$.c a r r 5 @ . . & e D ^ q.l.m.B.B.B.B.B.B.B.B.m.l.q.^ Z e # . $ u U { f.g.a.i./ F 0 @ o d d - - d  .-.<.1.",
"!.'.{.XX,X8X8X3X$X).L.%.c 6 * $ .   . & e D ^ q.l.m.B.B.B.N.N.B.B.B.m.l.q.^ Z e # . $ u U { a.a.i.' ! C 8 X o d d - o - d j  . .",
"Q.!.].XX,X8XaXaXeX3X).F.O., . .     . * e D ^ 0.j.n.N.N.N.N.N.N.N.N.n.j.0.^ Z e & X $ u P ] p.i.' ! J i 5 X - d d -     o - ; ; ",
"G.U.T.|.&X8XyXuXuXyX=XE.>.h ; o     X * r Z ! 0.h.v.n.m.N.N.N.N.m.n.v.h.0.! D e & X $ 0 F ^ ' ( ! J C e = , d h g -             ",
";.<.A.E.#X5XyXuXuXyX5X(.F.>.| d -   X * r D ! _ q.h.l.v.m.N.N.m.v.l.h.q._ ! D r * X X * u F K F C i e 7 z l ....h ;             ",
"j  .#.F.(.3XyXuXuXyX9X-X#XJ.3.X.d o X 5 t D I ^ _ 0.q.l.n.V.V.n.j.q.0._ ^ ~ J t * . . @ * 0 0 0 8 5 = z $.:.<.-.j ;             ",
"o ; k ,./.-XyXyXyXyXqX9X5X=X(.3.| ; X * t Z L I I ! _ t.l.n.n.l.t._ ^ I I L Z t 5 X   . . $ $ $ X X , l :.Z.Z.;.| ;             ",
"    f $.P.=X8XqXyXyXyXyXqX8X&XJ.#.h , = e V Z J J L ! 7.t.z.z.t.7.! L J J Z V r = , ; ; ; ; ; - - ; g +.<.K.Z.-.j -             ",
"    - X.F.#X1X0XqXqXyX9X7X1X&XE.A.@.o.z 7 y t V A S K E 7.9.9.7.E P J Z A i r 6 1 l ...... . .| |  .+.-.<.1.-. .d o             ",
"    - o.D.^.OX6X0XqXqX7X,XOX X~.U.C.;.X.z = 5 e V Z J F H n H H P L J A r 9 * 1 k >.1.C.C.1.<.<.1.1.1.<.-.+.j d -               ",
"    ; | <.T.}.:X6X8X8X1XOX}.].!.W.U.Z.-.l , $ 9 i D J C 0 8 3 0 C D Z i 9 $ . - j <.G.Y.Y.U.U.U.U.U.S.<.+.g - o                 ",
"- ; d  .;.Z.T.|.%X4X4X,XXX].!.Q.W.U.K.>.l 1 * r C L J i 5 X X & r V V r * .   - h ;.Z.U.W.Q.Q.Q.W.U.Z.-.j -     o - ; ; ; ; ; ; ",
"|  ...+.@.;.C.R.|.%X>XOX.X].Q.Y.G.C.:.O.c q p F I ! I C 5 .   X 5 9 e 5 $ .   o ; j @.1.G.Q.Q.Y.H.1.-.| ;     o d j  . . . . . .",
"1.<.;.-.+...@.2.R.|.XX@X{.'.Q.G.1.@.l c p F E ( ] ] / F 9 X     @ & * $ .       o - d ..1.Y.Y.G.1.+.j ; o     s  .-.<.1.1.<.<.<.",
"Y.U.Z.;. .g h +.C.T.].].'.!.U.C.+.g 1 q F ^ { p.s.i.' P 0 $       . . . .           o d @.S.U.C.@.g -       - j -.Z.U.U.U.U.U.U.",
"'.!.G.<.| ; - h -.Z.G.U.G.Z.1.@.h - $ 0 F ^ ] { { ] ^ F 0 $                           - j -.1.-.j -       - g +.1.U.!.!.!.!.!.!.",
"[.!.U.<.| - o ; | @.;.-.@...j d -   X 8 u F U U U Y F u 8 X                           o ; h | j s o   o s j +.<.H.W.'.'.'.'.'.'.",
"[.!.U.1. .-   o s h j h d ; - o     . $ 8 0 u u u u 0 8 $ .                             o - ; ; o   o d  .;.C.H.Y.Q.!.'.'.!.!.!.",
"'.!.U.1. .;     o - - - o             . X $ $ $ $ $ $ X .                                           - j -.Z.U.W.Q.!.!.!.!.!.!.!.",
"'.!.U.1. .;                                                                                         ;  .<.U.!.'.!.!.!.!.!.!.!.!.",
"'.!.U.1. .;                                                                                         ; ..1.Y.'.'.'.!.!.!.!.!.!.!."
};
