/* XPM */
static char *_f3b9370b9344b3c923224c834e6fce8jKMQN0mw63dnEnmO[] = {
/* columns rows colors chars-per-pixel */
"64 64 20 1 ",
"  c None",
". c #006F69",
"X c #006F6A",
"o c #00706A",
"O c #565972",
"+ c #BB0F25",
"@ c #BC0F26",
"# c #BC1026",
"$ c #D70034",
"% c #D80034",
"& c #D80035",
"* c #D15B22",
"= c #D25B22",
"- c #D25C22",
"; c #EEA33E",
": c #EFA33E",
"> c #EFA43F",
", c #008E8B",
"< c #008E8C",
"1 c #008F8C",
/* pixels */
"                                                                ",
"                                                                ",
"                                                                ",
"                                                                ",
"                                                                ",
"                                                                ",
"                                                                ",
"                                                                ",
"                                                                ",
"                                                                ",
"                                                                ",
"                                                                ",
"                                                                ",
"                                                                ",
"                                                                ",
"                                                                ",
"                                                                ",
"                                                                ",
"                                                                ",
"                                                                ",
"                                                                ",
"                                                                ",
"                                                                ",
"                                                                ",
"                                                                ",
"                                                                ",
"                                                                ",
"                                                                ",
"                                                                ",
"                       OOOOOOOOOOOOOOOOO                        ",
"                       O=-===-===::>:::O                        ",
"                       O=====-===::::::O                        ",
"                       O+@@@@@###%%%%$%O                        ",
"                       O@++@#@@@@%%%%%%O                        ",
"                       Oo..o..o..<<,<<<O                        ",
"                       Oo.......o,<<,<<O                        ",
"                       OOOOOOOOOOOOOOOOO                        ",
"                                                                ",
"                                                                ",
"                                                                ",
"                                                                ",
"                                                                ",
"                                                                ",
"                                                                ",
"                                                                ",
"                                                                ",
"                                                                ",
"                                                                ",
"                                                                ",
"                                                                ",
"                                                                ",
"                                                                ",
"                                                                ",
"                                                                ",
"                                                                ",
"                                                                ",
"                                                                ",
"                                                                ",
"                                                                ",
"                                                                ",
"                                                                ",
"                                                                ",
"                                                                ",
"                                                                "
};
