/* XPM */
static char *_80a090207154962fdf13e00db77640db4lJyv02RXGW6dAP[] = {
/* columns rows colors chars-per-pixel */
"64 64 71 1 ",
"  c #000000",
". c #0B0600",
"X c #0E0800",
"o c #120A00",
"O c #1A0E00",
"+ c #1C1100",
"@ c #241400",
"# c #2A1600",
"$ c #2E1900",
"% c #321B00",
"& c #391F00",
"* c #3D2100",
"= c #442500",
"- c #492700",
"; c #462800",
": c #4C2B00",
"> c #512C00",
", c #582F00",
"< c #553300",
"1 c #5B3200",
"2 c #5C3A00",
"3 c #653600",
"4 c #683700",
"5 c #633B00",
"6 c #6A3900",
"7 c #743E00",
"8 c #6E4000",
"9 c #754100",
"0 c #7B4200",
"q c #7E4900",
"w c #824600",
"e c #834A00",
"r c #8B4D00",
"t c #904F00",
"y c #8B5100",
"u c #935200",
"i c #935300",
"p c #945300",
"a c #975600",
"s c #9B5700",
"d c #9C5700",
"f c #925800",
"g c #9E5900",
"h c #9E5A00",
"j c #A05A00",
"k c #A15D00",
"l c #A75F00",
"z c #A85F00",
"x c #9D6200",
"c c #A76100",
"v c #A86000",
"b c #AB6300",
"n c #AC6200",
"m c #AE6400",
"M c #A56800",
"N c #B06500",
"B c #B16600",
"V c #B46700",
"C c #B56800",
"Z c #BA6B00",
"A c #BB6C00",
"S c #BC6C00",
"D c #BC7200",
"F c #C16F00",
"G c #C37100",
"H c #C57200",
"J c #C77400",
"K c #C97500",
"L c #CD7700",
"P c #CA7D00",
"I c #D48500",
/* pixels */
"000970wpzZGHHGHKLHv9*OO*9cGLKHZzpw00006-#.    X$:690770ulZGHHGGG",
"000970wpzZGHHGHKKGv9=++=9vGLKGZzpw00006:$o    o$:60000wpvZGHHGGG",
"000970wpzZGHHHGHGZk9;##:qvGKKGZzpw00006>%+X.  o#:600wwrsnZGHHHGG",
"000770wulZGJJHGSZna9>**1rmGKKGZluw090061-%#o..o#-60eruslNSGHHHHH",
"000779wulZGKKHSCvsr91>19aNGKKGZluw9700761>=#O.o#-60rsjvNZSGHHHHH",
"000990wpvZGJJGZnsrw7669rkCGKKGZvpw090097761*@Xo#-6wplNZSGGGGGGGG",
"00000wrsnZGGFZNjuw000wrsnAGJJGAnsrw00000006-#oo#-6wsvZGHHGGSSZZZ",
"900wruslNSSSCnjpe00wrpgvCSHKKHSCvgurw000006:#oo#-6wsnSHKKHSZNnvl",
"700rpjnCSSSVlsue000ralnCSGHJJHGSCnlarw00006-#oo#-6wsnSHKKHSNlspu",
"70wyjNZFGGZnsrw000wujNZSGGGGGGGFSZNjuw00006-#oo#-6wsvZGJJGZvsrw0",
"70wulZGJJGZvpw0770wpvZGGSAZZZZZASZNjuw00004-#oo#-6wplNZGHGZlpw07",
"70wpvAHKKGZluw9770eanSGFZmvvvvnnnnldrw00006-#oo#-60rsknCSSZluw97",
"70wpzZHKKGZluw9770eanSFZvgsaasssssatrw0ww06:#oo#-60erusvCSZzuw07",
"70wulZGKKGZzpw0770wavZZnsrwwwwwwwww00000006-#oo#-600wwrgmZZvpw07",
"70wulZGKKGZzpw0770wulNmgr764466666666666661*@Xo#-60000eavZZvpw07",
"70wpzZHKKGZzpw0770wrdlgr6,----------:::::-*#O.o#-60000wpvZZvae07",
"70wpvAHKKGZzpw07700eupr7,&#@@########$$$##@O..o#:60000wavAAvae07",
"70wulZGJJGZzpw079000ww71*+oXXoooooooooooooX.  o#:60000wavZZvpw07",
"70wujNZGHGZvpe090009761=#X  .XXX.      ..XX.  o$:60000wulNNkuw07",
"00wraknCSGAvse0000761>=#o. .O@@OX      XO@@O..o$:60000wrsjjarw07",
"00werusvCSSnse000073-%@o. .O$**$O.    .O%**$O.o#:60ww0weruurw009",
"00000wrgmZZvpw00096>%+X   X#-11-#X    X#-11=#Xo#-60000000www0000",
"666679wulNmgr764641=#X    o$>44>$o    o$>44:#oX@*166666670000000",
"-:>1360rsjsr61:-:-*$O.    o%,66>%o    o%>66>$o.O$=::-->167000000",
"#$%-,60erue6>*$###@OX     o%>66>%o    o%>66>$o.XO#####%-17000000",
".o+%>60wew71*@oXXoX..     o%>66>%o    o%>66>$o  .XoXXo+%>6000000",
"  o$>7wee06:$o. .XX..     o$>66>$o    o$>66>$o     ..XO%-1666666",
"  X%10uur04-#X .O@@Oo.    o$>66>$o    o$>66>%o     .O@$%=-:::---",
"  o*4yjgt04-#X.O$**%+.    o$>66>$o    o$>66>%o    .O$*-=&%$#####",
"  O=9gNvsw6-#oX@=11-#X    o$>66>$o    o$>66>%o    X#-11:%OoXXooo",
".o#>wvZNdw6-#oo#:44>$o    o$>66>$o    o$>66>$o    o$>66>$o. .Xoo",
"@$=4yNANdw6-#oo$>66>%o    o$>44>$o    o$>44>$o    o%>66>$X .o@##",
"-:10sCANdw6-#oo$>66>%o    o$:44:$o    o$:44:$o    o%>66>$X.O#*-:",
"469rkCZnsw6-#oo#:66>%o    o%>66>$o    o%>66>%o    o%>66:#oX@=166",
"70wpvZZnsw6-#oo#:46>$o    o%1771%o    o%1771%o    o$>64:#oo#-600",
"00esvZZnsw6-#oo#:44>$o    o*3qq3*o    o*3003*o    o$>44:#oo$:60w",
"00eavZZnsw6-#oo#:44:$o    O=9uy9=O    O=9uu9=O    o$:44:#oo#:60w",
"70epvZZnsw6-#oo#:66>%o    O-0gg0-O    O-0gg0-O    o%>66:#oo#-60w",
"70wpvZZnsw6-@oo$,77<%o    +:wccw:+    +:wccw:+    o%<77,$oo#-60w",
"70wpvZZnsw6-@oO%1003*o    +:evve:+    +:evve:+    o*3003%Oo#-60w",
"70wpvZZnsw6-@oO*6yy6=O    +:wvvw:+    +:evve:+    O=6yy6*Oo#-60w",
"70wpvZZnsw6-@oO;0gg0-+    +:evve:+    +:evve:+    +-0gg0;Oo#-60w",
"70epvZZnsw6-@o+:rmmy<+    +<ymmy>+    +>yNNy>+    +:ymmr:+o#-40w",
"00eavZZnsw6-@o+<fDDf<+    +<fDDf<+    +<fDDf<+    +<fDDf<+o#-40w",
"00esvZZnsw6=@o@2xPPx2@    @2xPPx2@    @2xPPx2@    @2xPPx2@o#-60w",
"70wpvZZnsw4=@o@2MIIM5@    @5MIIM5@    @5MIIM5@    @5MIIM2@o#-40w",
"469rkCZnsw4=@o@2MIIM5@    @5MIIM5@    @5MIIM5@    @5MIIM2@o#-60w",
"-:10sCANdw4=@o@2xPPx2@    @2xPPx2@    @2xPPx2@    @2xPPx<@o#-60w",
"@$=4yNANgw4=@o+<yDDf<+    +<fDDf<+    +<fDDf<+    +<fDDy<+o#-60w",
".o#>wvZNgw4-@o+:rmmy:+    +>ymmy>+    +>yNNy>+    +>ymmr:+o#-400",
"  O=9kNvsw6-@o+-wcve:+    +:evve:+    +:evce:+    +:evcw-+X@*166",
"  o*6uljpw6-@o+;qlcw:O    O:wccw:O    O:wccw:O    O:wccq-+.o#*-:",
"  X%1wppr06-@o+-qccw:+    +:wcce:+    +:wcce:+    +:wccw-+..o@##",
"  o$>7wew06-#o+-qccw:+    +:wcce:+    +:wccw:+    +:wcce:+  .Xoo",
".oO$-167096-#o+-wvve:+    +:ecce:+    +:evve:+    +:evve:+  .Xoo",
"#$%%*->3676-#o+-emmr:+    +:rnvr:+    +:rmmr:+    +:rmvr:O..o@##",
"::-*%%%-376:#o+:emmr:+    +:rmmr:+    +:rmmr:+    +:rmme:+.o#*-:",
"661-$O+%,64-#o+-qccw:+    +:wcce:+    +:wccw:+    +:wccq-+o@*166",
"006-#oo#=11=@XO*8uu9=O    O=9uu9=O    O=9uu9=O    O=9uu9-#@%>600",
"w06:#X.O$*=$O.o$:56<$o    o$>66>$o    o$<66>$o    o$:661-&&-170w",
"w06:$X..O@#OX..O$**$+.    .+$**$+.    .+$**$+.    .O#*;--:,36700",
"w06:$o  .XX..  .oOOo..    ..oOOo..    ..oOOo..     .XO#&-1677000",
"w06:$o                                                o$:6000000",
"w06:$o                                                .#:60w0000"
};
